<svg width="634" height="606" viewBox="0 0 634 606" fill="none" xmlns="http://www.w3.org/2000/svg">
<path d="M318.551 606C492.769 606 634 532.683 634 442.241C634 351.799 492.769 278.482 318.551 278.482C144.334 278.482 3.10229 351.799 3.10229 442.241C3.10229 532.683 144.334 606 318.551 606Z" fill="#F5F5F5"/>
<path d="M520.643 463.635C567.111 463.635 604.78 441.951 604.78 415.202C604.78 388.454 567.111 366.77 520.643 366.77C474.176 366.77 436.506 388.454 436.506 415.202C436.506 441.951 474.176 463.635 520.643 463.635Z" fill="#E6E6E6"/>
<path d="M181.802 386.457C213.991 404.987 215.303 435.578 183.1 454.108C150.898 472.639 97.4165 472.088 65.2144 453.557C33.0122 435.027 33.026 404.987 65.2144 386.457C97.4027 367.926 149.586 367.926 181.802 386.457Z" fill="#E6E6E6"/>
<path d="M444.363 486.309L338.698 425.486C336.845 424.549 334.797 424.06 332.719 424.06C330.641 424.06 328.593 424.549 326.74 425.486L221.075 486.309C217.774 488.209 217.774 491.293 221.075 493.192L269.198 520.892L224.251 546.76C215.123 552.005 200.265 552.005 191.109 546.76L120.408 506.065C116.514 503.821 114.36 500.998 114.36 498.135C114.36 495.271 116.514 492.435 120.408 490.191L183.059 454.121C183.389 453.949 183.681 453.712 183.916 453.425C184.152 453.138 184.327 452.806 184.431 452.449C184.535 452.092 184.565 451.718 184.52 451.35C184.475 450.981 184.356 450.625 184.17 450.304C183.983 449.982 183.734 449.702 183.436 449.479C183.138 449.256 182.798 449.096 182.436 449.007C182.074 448.919 181.698 448.905 181.33 448.965C180.963 449.025 180.611 449.159 180.297 449.358L117.674 485.4C111.999 488.677 108.864 493.192 108.864 498.121C108.864 503.05 111.999 507.551 117.674 510.828L188.375 551.523C194.354 554.595 200.982 556.198 207.708 556.198C214.433 556.198 221.062 554.595 227.04 551.523L274.749 524.072L326.795 554.015C328.648 554.953 330.696 555.441 332.774 555.441C334.852 555.441 336.9 554.953 338.753 554.015L444.418 493.192C447.664 491.293 447.664 488.209 444.363 486.309Z" fill="#E6E6E6"/>
<path d="M565.108 392.459C565.108 392.459 568.947 335.766 567.87 314.868C566.972 298.347 564.721 291.464 564.252 287.733C564.252 287.733 560.178 249.185 559.847 216.296C559.681 200.491 558.217 189.257 549.531 170.479L493.702 183.791C492.57 192.134 488.731 247.616 487.82 296.943C487.033 340.13 488.262 377.935 488.262 377.935V380.206C488.262 382.739 487.709 384.502 486.08 388.549C484.043 393.764 481.119 398.589 477.436 402.812C476.289 404.051 468.322 410.989 467.272 412.449C463.848 416.427 470.945 418.671 476.207 417.955C481.73 417.212 490.374 415.106 492.777 411.747C494.407 409.489 495.636 401.628 497.306 399.356C502.954 391.674 505.274 388.343 505.316 385.92C505.398 381.487 503.866 379.738 503.313 377.233C503.769 372.001 515.106 328.979 515.299 313.739C515.396 306.484 514.899 296.489 514.899 296.489L523.681 246.211C527.078 258.767 533.044 289.936 535.06 301.899C537.504 316.52 543.897 354.049 547.681 376.434C549.131 385.066 549.808 389.43 550.443 393.436L550.595 395.143C550.719 397.319 552.307 420.585 553.163 425.431C554.958 435.605 564.031 434.325 565.481 426.092C566.723 419.098 565.177 397.401 565.135 394.744L565.108 392.459Z" fill="#FFA8A7"/>
<path d="M565.108 392.46C567.676 392.46 565.992 402.386 566.654 408.733C567.359 415.547 569.596 420.531 570.245 426.107C571.115 430.98 570.364 436.003 568.104 440.411C566.323 444.541 557.347 450.047 553.936 444.252C550.526 438.456 549.794 431.751 550.194 425.391C550.595 419.03 550.194 414.763 550.318 409.765C550.443 405.36 547.198 394.112 550.526 393.479L550.678 395.186C551.879 397.567 564.003 398.036 565.218 394.814L565.108 392.46Z" fill="#37474F"/>
<path d="M505.896 391.33C506.683 394.511 505.896 403.239 505.896 403.239C505.896 403.239 504.515 406.254 499.585 408.25L497.375 396.108L505.896 391.33Z" fill="#263238"/>
<path d="M499.557 408.25L488.704 404.698L486.08 395.089L498.287 401.243L499.557 408.25Z" fill="black"/>
<path d="M488.262 380.206V377.935C486.784 378.651 483.539 390.504 479.148 398.585C475.143 406.006 467.203 410.136 464.621 413.371C461.169 417.68 467.88 423.256 478.637 420.957C483.981 419.814 492.073 416.414 494.268 412.82C496.464 409.227 497.196 402.619 498.991 399.976C500.786 397.333 505.053 394.29 505.896 391.289C506.597 388.58 506.597 385.738 505.896 383.029C505.053 380.275 504.307 376.985 503.368 377.288V379.367C502.65 380.826 500.041 382.533 494.614 382.836C491.962 382.96 489.449 382.56 488.262 380.206Z" fill="#37474F"/>
<path d="M492.57 183.076C492.57 183.076 488.883 223.923 487.695 260.089C486.508 296.255 487.571 342.925 487.571 342.925C487.571 342.925 491.313 345.596 499.557 345.968C507.801 346.339 510.604 343.6 510.604 343.6C510.604 343.6 515.645 327.203 516.432 315.666C516.931 309.421 516.931 303.147 516.432 296.902L523.792 248.634C523.792 248.634 533.127 296.158 534.19 301.899C535.253 307.64 544.187 358.427 544.187 358.427C544.187 358.427 547.695 361.648 556.698 361.483C564.666 361.332 566.972 358.482 566.972 358.482C566.972 358.482 568.891 327.341 568.449 314.042C568.077 302.312 565.384 292.978 564.845 285.365C564.307 277.752 564.003 234.427 563.465 217.906C562.926 201.386 561.545 187.206 547.363 167.326L492.57 183.076Z" fill="#455A64"/>
<path d="M523.847 248.676L517.716 218.388C517.716 218.388 507.042 215.635 502.057 209.109C502.057 209.109 503.438 216.323 514.485 220.935L521.002 251.058L518.738 282.199L523.847 248.676Z" fill="#37474F"/>
<path d="M414.564 175.546C418.497 176.144 422.514 175.847 426.315 174.678C424.645 173.846 423.083 172.815 421.662 171.608C421.01 171.086 420.587 170.331 420.484 169.503C420.381 168.676 420.605 167.841 421.109 167.175C421.62 166.624 422.891 167.905 425.763 168.717C429.436 169.75 432.101 169.97 435.636 172.007C436.97 172.781 438.537 173.054 440.055 172.778C448.672 171.168 468.764 161.765 477.974 156.864C479.852 149.223 483.111 137.989 487.129 123.974C490.844 111.061 496.795 105.416 506.296 105.623L504.929 133.666C504.929 133.666 500.4 153.036 494.793 168.855C493.813 171.608 489.877 174.816 482.669 177.487C473.334 180.942 462.066 184.205 448.299 187.963C442.72 189.548 437.021 190.676 431.259 191.336C416.704 192.575 411.126 188.583 409.165 185.719C403.586 177.817 406.886 174.017 414.564 175.546Z" fill="#FFA8A7"/>
<path d="M530.779 105.416L544.063 106.435C542.919 111.817 543.243 117.407 545.002 122.622C546.76 127.838 549.888 132.488 554.061 136.089L548.137 159.878C548.33 162.824 553.218 172.737 557.955 183.392C549.048 195.287 505.357 199.348 491.106 188.899C493.302 177.693 494.945 169.185 495.387 164.931L494.669 149.553C476.8 134.946 498.356 112.685 506.296 105.609L516.266 105.168L530.779 105.416Z" fill="#756FB3"/>
<path d="M586.719 223.937C585.755 223.187 584.991 222.212 584.495 221.098C583.999 219.983 583.785 218.765 583.874 217.549C584.109 215.332 584.62 212.551 585.545 211.478C586.47 210.404 592.27 202.543 594.838 207.113C597.6 212.097 597.034 214.121 597.034 214.121L586.719 223.937Z" fill="#F28F8F"/>
<path d="M568.822 329.007C562.589 328.8 556.518 326.967 551.216 323.692L482.269 283.988C471.622 277.862 462.936 262.897 462.936 250.631V192.96C462.929 191.03 462.414 189.136 461.442 187.467C460.469 185.798 459.074 184.413 457.396 183.451C455.718 182.489 453.815 181.984 451.879 181.986C449.944 181.987 448.042 182.496 446.366 183.461L422.228 197.393C421.913 197.593 421.562 197.726 421.194 197.787C420.827 197.847 420.451 197.832 420.089 197.744C419.727 197.656 419.387 197.495 419.089 197.273C418.791 197.05 418.542 196.769 418.355 196.448C418.169 196.126 418.049 195.77 418.005 195.402C417.96 195.033 417.99 194.659 418.094 194.303C418.198 193.946 418.373 193.614 418.608 193.326C418.844 193.039 419.136 192.802 419.466 192.63L443.673 178.684C446.19 177.235 449.044 176.472 451.951 176.471C454.857 176.469 457.712 177.23 460.23 178.676C462.748 180.123 464.841 182.204 466.297 184.711C467.754 187.218 468.523 190.063 468.529 192.96V250.631C468.529 260.956 476.124 274.035 485.099 279.225L554.047 318.902C562.871 323.982 571.059 324.863 577.08 321.407C583.101 317.952 586.429 310.393 586.429 300.275V226.648C586.429 214.175 594.424 199.803 604.629 193.924L621.462 184.287C621.776 184.088 622.127 183.954 622.495 183.894C622.863 183.834 623.238 183.848 623.6 183.936C623.962 184.025 624.302 184.185 624.6 184.408C624.898 184.631 625.148 184.911 625.334 185.233C625.521 185.554 625.64 185.91 625.685 186.279C625.73 186.647 625.699 187.021 625.596 187.378C625.492 187.735 625.317 188.067 625.081 188.354C624.845 188.641 624.553 188.878 624.223 189.051L607.39 198.687C599.022 203.506 591.952 216.296 591.952 226.635V300.261C591.952 312.458 587.644 321.655 579.842 326.157C576.489 328.07 572.685 329.054 568.822 329.007Z" fill="#37474F"/>
<path d="M449.694 201.373V205.875C449.694 213.075 444.626 221.845 438.357 225.438L396.543 249.517L354.026 225.039V188.336L395.259 169.31C401.818 166.295 412.203 166.763 418.472 170.356L438.329 181.796C444.584 185.403 449.694 194.173 449.694 201.373Z" fill="#37474F"/>
<path d="M395.259 169.31C401.818 166.295 412.203 166.763 418.472 170.356L438.329 181.796C444.584 185.39 444.336 190.759 437.777 193.787L396.502 212.786L353.971 188.322L395.259 169.31Z" fill="#455A64"/>
<path opacity="0.15" d="M400.52 203.975C402.168 205.046 403.539 206.489 404.522 208.188C405.506 209.886 406.074 211.791 406.182 213.749V243.94L396.516 249.447L353.998 224.969V188.335L364.769 183.379L400.52 203.975Z" fill="black"/>
<path d="M350.367 182.015C351.004 181.72 351.709 181.6 352.408 181.668C353.107 181.735 353.776 181.989 354.344 182.401L396.157 206.48C397.807 207.552 399.179 208.997 400.163 210.698C401.147 212.399 401.714 214.307 401.818 216.268V252.172C401.894 252.871 401.78 253.576 401.488 254.215C401.197 254.855 400.738 255.404 400.161 255.807C399.195 256.344 395.784 258.312 394.831 258.877C394.192 259.172 393.485 259.292 392.783 259.224C392.082 259.157 391.411 258.904 390.84 258.491L349.013 234.413C347.366 233.341 345.995 231.898 345.012 230.2C344.028 228.502 343.459 226.596 343.352 224.638V188.734C343.278 188.035 343.392 187.33 343.68 186.689C343.969 186.048 344.422 185.495 344.995 185.085L350.367 182.015Z" fill="#37474F"/>
<path d="M390.84 209.537L349.013 185.472C345.893 183.669 343.352 185.128 343.352 188.735V224.639C343.459 226.598 344.028 228.503 345.012 230.201C345.995 231.899 347.366 233.342 349.013 234.414L390.84 258.493C393.961 260.296 396.502 258.837 396.502 255.23V219.325C396.394 217.365 395.826 215.458 394.842 213.758C393.859 212.058 392.488 210.612 390.84 209.537Z" fill="#455A64"/>
<path d="M341.308 251.333V257.542C341.308 260.061 342.178 261.81 343.614 262.636L347.37 264.797C348.27 265.234 349.273 265.418 350.27 265.331C351.267 265.244 352.222 264.888 353.032 264.302L387.554 244.394V219.889L383.798 217.728L349.207 237.635C346.903 239.139 344.988 241.163 343.615 243.543C342.243 245.923 341.453 248.592 341.308 251.333ZM356.953 243.651C357.085 244.099 357.16 244.561 357.174 245.028C357.076 246.868 356.543 248.658 355.619 250.254C354.695 251.849 353.407 253.205 351.858 254.21C351.428 254.462 350.962 254.647 350.477 254.761C350.356 254.312 350.291 253.849 350.284 253.384C350.383 251.545 350.917 249.755 351.841 248.159C352.764 246.564 354.052 245.208 355.6 244.202C356.029 243.968 356.483 243.784 356.953 243.651Z" fill="#756FB3"/>
<path opacity="0.2" d="M347.177 264.66C347.249 264.723 347.328 264.778 347.412 264.825L347.273 264.743L343.642 262.636C342.192 261.838 341.336 260.089 341.336 257.556V251.347C341.426 248.588 342.23 245.899 343.669 243.541L347.425 245.703C346 248.066 345.202 250.752 345.106 253.509V259.718C345.004 261.325 345.523 262.911 346.555 264.151C346.742 264.344 346.95 264.515 347.177 264.66Z" fill="black"/>
<path opacity="0.5" d="M387.554 219.889L353.032 239.796C350.69 241.252 348.76 243.28 347.425 245.689L343.669 243.527C345.003 241.122 346.927 239.095 349.262 237.635L383.853 217.728L387.554 219.889Z" fill="white"/>
<path opacity="0.2" d="M357.174 245.028C357.173 244.531 357.108 244.036 356.981 243.555C359.26 242.936 360.93 244.354 360.93 247.19C360.831 249.028 360.3 250.817 359.378 252.412C358.457 254.007 357.172 255.364 355.628 256.372C353.17 257.749 351.071 257.047 350.491 254.761C350.979 254.655 351.445 254.469 351.872 254.211C353.416 253.202 354.7 251.845 355.621 250.25C356.542 248.655 357.074 246.866 357.174 245.028Z" fill="black"/>
<path d="M309.424 232.968V239.191C309.424 241.696 310.293 243.459 311.73 244.271L315.486 246.446C316.385 246.873 317.383 247.05 318.375 246.958C319.367 246.866 320.315 246.508 321.12 245.923L355.642 226.002V201.538L351.886 199.363L317.364 219.27C315.055 220.772 313.133 222.794 311.753 225.174C310.374 227.554 309.576 230.224 309.424 232.968ZM325.069 225.245C325.195 225.726 325.26 226.221 325.262 226.718C325.163 228.557 324.629 230.347 323.706 231.943C322.782 233.538 321.494 234.894 319.946 235.9C319.509 236.137 319.045 236.322 318.565 236.451C318.433 235.981 318.368 235.494 318.372 235.006C318.471 233.167 319.002 231.379 319.924 229.783C320.845 228.188 322.13 226.831 323.674 225.823C324.11 225.566 324.579 225.371 325.069 225.245Z" fill="#756FB3"/>
<path opacity="0.2" d="M315.651 246.543H315.582H315.486L311.73 244.354C310.28 243.542 309.424 241.793 309.424 239.26V233.051C309.438 231.725 309.648 230.408 310.045 229.141C310.461 227.787 311.03 226.484 311.743 225.259L315.499 227.407C315.143 228.02 314.825 228.655 314.547 229.307C313.689 231.157 313.22 233.162 313.166 235.199V241.408C313.048 243.006 313.541 244.59 314.547 245.841C314.872 246.136 315.246 246.373 315.651 246.543Z" fill="black"/>
<path opacity="0.5" d="M355.683 201.538L321.161 221.445C318.816 222.897 316.885 224.926 315.555 227.337L311.799 225.19C313.109 222.783 315.009 220.746 317.322 219.27L351.844 199.363L355.683 201.538Z" fill="white"/>
<path opacity="0.2" d="M325.248 226.704C325.251 226.212 325.191 225.722 325.069 225.245C327.334 224.612 329.018 226.043 329.018 228.879C328.919 230.717 328.387 232.506 327.466 234.102C326.545 235.697 325.26 237.054 323.716 238.062C321.244 239.439 319.159 238.737 318.579 236.437C319.068 236.335 319.535 236.149 319.96 235.887C321.503 234.878 322.786 233.521 323.705 231.926C324.624 230.33 325.153 228.541 325.248 226.704Z" fill="black"/>
<path d="M319.891 209.99C319.43 209.992 318.983 209.839 318.62 209.557C318.257 209.275 318 208.88 317.888 208.435L312.365 186.848C312.227 186.317 312.307 185.753 312.587 185.28C312.867 184.808 313.323 184.465 313.856 184.328C314.389 184.192 314.955 184.271 315.429 184.55C315.902 184.829 316.246 185.284 316.383 185.815L321.907 207.416C321.977 207.678 321.994 207.952 321.957 208.22C321.919 208.489 321.829 208.748 321.69 208.981C321.551 209.215 321.367 209.418 321.148 209.58C320.929 209.741 320.68 209.857 320.415 209.921C320.244 209.966 320.068 209.989 319.891 209.99Z" fill="#E0E0E0"/>
<path d="M304.342 218.994C303.876 218.995 303.424 218.84 303.058 218.554L282.496 202.35C282.269 202.187 282.078 201.979 281.934 201.74C281.789 201.501 281.695 201.236 281.657 200.959C281.618 200.683 281.636 200.402 281.709 200.133C281.783 199.864 281.91 199.612 282.084 199.393C282.258 199.175 282.474 198.993 282.72 198.86C282.966 198.727 283.236 198.645 283.515 198.619C283.793 198.593 284.074 198.623 284.341 198.709C284.607 198.794 284.853 198.932 285.065 199.114L305.626 215.305C306.056 215.646 306.333 216.142 306.398 216.686C306.463 217.23 306.309 217.778 305.971 218.209C305.778 218.456 305.531 218.655 305.248 218.791C304.966 218.927 304.656 218.997 304.342 218.994Z" fill="#E0E0E0"/>
<path d="M276.006 238.764C275.457 238.784 274.922 238.585 274.519 238.212C274.117 237.839 273.879 237.322 273.859 236.774C273.839 236.227 274.038 235.693 274.412 235.292C274.786 234.89 275.305 234.654 275.854 234.634L299.895 232.775C300.167 232.752 300.44 232.784 300.699 232.867C300.958 232.951 301.198 233.085 301.405 233.262C301.612 233.438 301.782 233.654 301.904 233.897C302.027 234.14 302.099 234.404 302.119 234.675C302.157 235.22 301.978 235.758 301.622 236.173C301.265 236.587 300.759 236.846 300.213 236.891L276.172 238.75L276.006 238.764Z" fill="#E0E0E0"/>
<path d="M605.512 201.469C605.044 196.382 604.288 191.326 603.248 186.325C600.106 174.591 595.919 163.16 590.737 152.169C588.431 147.777 583.225 141.376 579.538 135.965C574.318 128.324 570.645 124.043 566.682 118.853C557.955 107.467 554.254 106.807 544.063 106.462C542.682 110.083 539.534 124.924 549.739 136.915L571.612 159.906C572.854 161.902 586.221 184.687 588.445 193.098C588.829 194.594 588.642 196.179 587.92 197.545C586.173 201.401 584.889 205.449 584.095 209.605C583.446 212.524 581.706 214.837 582.3 215.291C583.033 215.78 583.911 216.007 584.79 215.938C585.67 215.868 586.5 215.504 587.147 214.906C588.708 213.235 589.982 211.318 590.916 209.233C591.327 209.207 591.739 209.265 592.125 209.405C592.512 209.546 592.865 209.764 593.162 210.048C593.46 210.331 593.695 210.673 593.852 211.052C594.01 211.431 594.087 211.838 594.079 212.248C594.203 213.942 593.43 216.296 592.836 219.228C592.725 219.807 592.587 220.467 592.325 222.064C592.098 223.143 591.969 224.239 591.938 225.341C594.7 225.85 597.586 224.171 602.226 219.834C606.41 215.787 606.686 210.473 605.512 201.469Z" fill="#FFA8A7"/>
<path d="M533.154 98.7246C533.237 95.9712 542.213 89.5282 546.756 82.6722C550.898 76.3118 556.85 58.8276 542.903 53.2382C542.903 53.2382 545.913 44.8541 540.445 39.9117C534.977 34.9693 527.617 38.0256 526.457 40.0907C525.756 37.5162 524.241 35.236 522.136 33.589C520.031 31.942 517.449 31.0163 514.775 30.9493C512.162 30.7532 509.566 31.5047 507.465 33.0656C505.364 34.6264 503.899 36.8915 503.341 39.4436C501.134 38.4912 498.666 38.3244 496.35 38.9711C494.034 39.6178 492.012 41.0387 490.623 42.9955C485.5 50.0305 492.294 56.4735 492.294 56.4735C491.413 57.0663 490.71 57.8867 490.26 58.8469C489.81 59.807 489.63 60.871 489.739 61.9252C490.14 64.8989 492.998 65.6286 493.329 67.1154C493.394 67.4265 493.354 67.75 493.217 68.0367C493.08 68.3234 492.853 68.5578 492.57 68.7041C492.288 68.8505 491.965 68.9009 491.651 68.8478C491.337 68.7946 491.048 68.6407 490.83 68.4095C490.905 68.7977 491.055 69.1674 491.273 69.4975C491.491 69.8275 491.773 70.1113 492.101 70.3326C492.43 70.5539 492.799 70.7083 493.187 70.787C493.576 70.8657 493.976 70.8672 494.365 70.7912C497.583 70.6123 500.455 66.2481 500.455 66.2481L533.154 98.7246Z" fill="#263238"/>
<path d="M503.879 52.3572C499.737 54.1469 495.829 60.4385 495.884 78.0328C495.884 92.9425 500.524 96.7147 502.789 97.8298C505.053 98.945 509.624 98.3667 514.029 97.6922V106.269C514.029 106.269 506.061 116.126 513.2 121.027C531.594 117.82 533.002 105.787 533.002 105.787L533.334 87.0915C533.334 87.0915 535.861 89.7348 540.238 85.8525C543.911 82.6447 545.237 77.1517 542.475 74.1229C539.713 71.0942 536.178 70.8601 532.975 74.2331C532.975 74.2331 527.106 74.6185 518.282 69.098C509.458 63.5774 506.31 57.9742 503.879 52.3572Z" fill="#FFA8A7"/>
<path d="M514.471 87.3673C514.489 87.6516 514.451 87.9368 514.358 88.2063C514.265 88.4757 514.119 88.7241 513.929 88.9368C513.739 89.1495 513.508 89.3223 513.25 89.4452C512.992 89.5681 512.713 89.6386 512.427 89.6526C511.984 89.6881 511.541 89.5906 511.155 89.3727C510.768 89.1548 510.456 88.8265 510.258 88.4301C510.061 88.0337 509.986 87.5874 510.045 87.1486C510.104 86.7098 510.294 86.2987 510.589 85.9682C510.885 85.6378 511.273 85.4031 511.703 85.2945C512.134 85.1859 512.587 85.2083 513.005 85.3588C513.422 85.5093 513.785 85.7811 514.047 86.1391C514.308 86.497 514.456 86.9248 514.471 87.3673Z" fill="#B16668"/>
<path d="M503.106 72.9388C503.103 73.3267 502.986 73.7052 502.769 74.0274C502.553 74.3496 502.246 74.6013 501.887 74.7514C501.528 74.9015 501.133 74.9434 500.751 74.8718C500.368 74.8002 500.015 74.6183 499.736 74.3487C499.456 74.0791 499.262 73.7336 499.177 73.355C499.092 72.9764 499.121 72.5813 499.259 72.2187C499.397 71.8562 499.639 71.542 499.955 71.3152C500.271 71.0883 500.646 70.9588 501.035 70.9426C501.302 70.9372 501.569 70.9845 501.818 71.0821C502.067 71.1796 502.295 71.3253 502.487 71.5109C502.68 71.6964 502.834 71.9181 502.94 72.1632C503.046 72.4083 503.102 72.6719 503.106 72.9388Z" fill="#263238"/>
<path d="M518.392 73.8481C518.411 74.1325 518.373 74.4177 518.28 74.6871C518.187 74.9566 518.041 75.2049 517.851 75.4176C517.661 75.6303 517.43 75.8031 517.172 75.926C516.914 76.0489 516.634 76.1194 516.349 76.1334C515.771 76.1372 515.215 75.9138 514.802 75.5118C514.388 75.1098 514.15 74.5615 514.139 73.9858C514.13 73.7074 514.176 73.4299 514.275 73.1692C514.373 72.9085 514.522 72.6697 514.713 72.4664C514.904 72.2632 515.134 72.0994 515.388 71.9845C515.643 71.8696 515.918 71.8058 516.197 71.7968C516.476 71.7878 516.754 71.8336 517.016 71.9318C517.277 72.03 517.517 72.1786 517.721 72.3691C517.925 72.5596 518.089 72.7882 518.204 73.042C518.319 73.2958 518.383 73.5697 518.392 73.8481Z" fill="#263238"/>
<path d="M501.725 65.0509L497.514 67.5152C497.664 67.7991 497.871 68.0491 498.123 68.2496C498.374 68.4501 498.665 68.5969 498.975 68.6809C499.286 68.7648 499.611 68.7841 499.93 68.7375C500.248 68.6909 500.554 68.5794 500.828 68.41C501.381 68.0723 501.784 67.5349 501.951 66.9095C502.118 66.2841 502.037 65.6186 501.725 65.0509Z" fill="#263238"/>
<path d="M533.057 71.8108V80.071C532.526 80.0845 531.998 79.9894 531.505 79.7917C531.012 79.5939 530.564 79.2976 530.191 78.921C529.817 78.5444 529.524 78.0955 529.331 77.6019C529.138 77.1083 529.048 76.5806 529.067 76.051C529.071 74.9723 529.485 73.9352 530.226 73.1485C530.966 72.3618 531.978 71.8839 533.057 71.8108Z" fill="#263238"/>
<path d="M508.547 70.9705L507.704 82.8652L501.408 81.3922L508.547 70.9705Z" fill="#F28F8F"/>
<path d="M514.084 97.7197C518.71 97.1828 528.266 94.5395 529.826 90.6572C529.208 92.6022 528.014 94.3155 526.402 95.572C523.516 98.0501 514.07 100.611 514.07 100.611L514.084 97.7197Z" fill="#F28F8F"/>
<path d="M569.692 5.72875C571.454 6.3993 573.106 7.32725 574.594 8.48217C576.036 9.53266 577.276 10.8338 578.254 12.3232C579.185 13.7559 579.797 15.3707 580.049 17.059C580.298 18.8611 580.074 20.6966 579.4 22.3869C578.918 23.7401 578.171 24.9848 577.204 26.0489C576.34 26.9562 575.349 27.7351 574.263 28.3618C573.206 28.964 572.097 29.4708 570.949 29.8762L567.69 31.0464C566.731 31.3917 565.807 31.8249 564.928 32.3405C564.1 32.7555 563.406 33.3949 562.926 34.1853C562.706 34.5543 562.391 34.8584 562.015 35.0664C561.834 35.1653 561.634 35.2229 561.429 35.2348C561.223 35.2467 561.018 35.2127 560.827 35.1352L556.519 33.5245C556.314 33.449 556.127 33.3333 555.968 33.1844C555.809 33.0354 555.682 32.8561 555.593 32.6571C555.499 32.4668 555.449 32.2571 555.449 32.0445C555.449 31.8319 555.499 31.6222 555.593 31.4319C556.147 30.1072 556.965 28.9083 557.996 27.9075C558.932 27.0305 559.976 26.2764 561.103 25.6635C562.191 25.0808 563.328 24.5926 564.5 24.2042C565.66 23.8187 566.737 23.447 567.745 23.0615C568.656 22.7283 569.53 22.3039 570.355 21.7949C571.065 21.3466 571.608 20.6795 571.902 19.8951C572.174 19.2079 572.274 18.4649 572.192 17.7306C572.11 16.9963 571.849 16.2931 571.432 15.6823C570.393 14.178 568.882 13.0596 567.138 12.5021C565.618 11.8993 563.948 11.7808 562.358 12.1629C560.768 12.545 559.336 13.409 558.259 14.636C557.983 14.9262 557.661 15.1682 557.306 15.3519C556.922 15.4716 556.508 15.4421 556.146 15.2693L551.561 13.5484C551.398 13.4919 551.247 13.403 551.119 13.2871C550.991 13.1711 550.888 13.0306 550.816 12.8739C550.736 12.7132 550.695 12.5366 550.695 12.3576C550.695 12.1786 550.736 12.002 550.816 11.8413C551.423 10.4376 552.372 9.20723 553.577 8.26189C554.919 7.14941 556.448 6.28247 558.093 5.70122C559.9 5.06474 561.797 4.72079 563.713 4.68245C565.755 4.64395 567.785 4.99923 569.692 5.72875ZM559.86 38.632C560.062 38.7033 560.246 38.8162 560.401 38.9633C560.555 39.1104 560.677 39.2884 560.758 39.4856C560.843 39.6811 560.887 39.892 560.887 40.1051C560.887 40.3183 560.843 40.5291 560.758 40.7246L558.88 45.6945C558.808 45.8954 558.695 46.0789 558.548 46.2331C558.4 46.3873 558.222 46.5087 558.024 46.5894C557.828 46.6743 557.616 46.7181 557.402 46.7181C557.189 46.7181 556.977 46.6743 556.781 46.5894L551.906 44.7584C551.705 44.6871 551.521 44.5742 551.366 44.4271C551.212 44.28 551.09 44.1021 551.009 43.9048C550.924 43.7093 550.88 43.4984 550.88 43.2853C550.88 43.0722 550.924 42.8613 551.009 42.6658L552.887 37.6959C552.961 37.4945 553.074 37.3102 553.221 37.154C553.369 36.9978 553.546 36.8731 553.743 36.7872C553.94 36.7055 554.151 36.6633 554.364 36.6633C554.578 36.6633 554.789 36.7055 554.986 36.7872L559.86 38.632Z" fill="#756FB3"/>
<path d="M572.081 65.0654C572.225 65.2063 572.34 65.3745 572.418 65.5601C572.496 65.7456 572.536 65.9449 572.536 66.1461C572.536 66.3473 572.496 66.5465 572.418 66.7321C572.34 66.9177 572.225 67.0858 572.081 67.2268L568.629 70.8613C568.491 71.008 568.324 71.1251 568.139 71.2056C567.953 71.286 567.754 71.3282 567.552 71.3294C567.35 71.3367 567.148 71.304 566.958 71.2331C566.768 71.1622 566.595 71.0546 566.447 70.9164L562.926 67.5434C562.779 67.4055 562.661 67.2392 562.581 67.0546C562.5 66.87 562.458 66.671 562.456 66.4696C562.446 66.2675 562.477 66.0654 562.549 65.8759C562.62 65.6864 562.729 65.5136 562.871 65.3682L566.337 61.7475C566.626 61.4642 567.015 61.3054 567.421 61.3054C567.826 61.3054 568.215 61.4642 568.505 61.7475L572.081 65.0654ZM592.794 40.1057C594.079 41.3186 595.181 42.7096 596.067 44.2358C596.921 45.682 597.515 47.2662 597.821 48.9166C598.08 50.4986 598 52.1173 597.586 53.6662C597.146 55.1318 596.403 56.4898 595.407 57.6537C594.411 58.8175 593.183 59.7616 591.8 60.4259C590.72 60.9014 589.575 61.2168 588.403 61.362C587.262 61.49 586.112 61.5223 584.965 61.4584L581.706 61.2794C580.734 61.2271 579.759 61.2593 578.792 61.3758C577.926 61.4711 577.104 61.8048 576.417 62.3395C576.092 62.5843 575.704 62.7323 575.299 62.7663C575.105 62.788 574.909 62.7658 574.724 62.7014C574.54 62.6371 574.373 62.5322 574.235 62.3946L571.101 59.4209C570.799 59.137 570.62 58.7466 570.604 58.3333C570.584 58.1299 570.614 57.9248 570.691 57.7354C570.768 57.546 570.889 57.378 571.046 57.2457C572.008 56.292 573.154 55.5426 574.415 55.043C575.549 54.623 576.732 54.35 577.936 54.2307C579.099 54.1345 580.267 54.1345 581.43 54.2307C582.58 54.3317 583.658 54.4005 584.661 54.4372C585.584 54.4836 586.51 54.4328 587.423 54.2858C588.209 54.164 588.932 53.7864 589.48 53.2119C589.965 52.7123 590.32 52.1033 590.518 51.4369C590.715 50.7704 590.747 50.0664 590.613 49.3847C590.269 47.6959 589.37 46.1696 588.058 45.0481C586.955 43.9726 585.546 43.2631 584.024 43.0167C582.501 42.7703 580.939 42.9989 579.552 43.6714C579.211 43.8208 578.846 43.9094 578.475 43.9329C578.286 43.9216 578.102 43.8718 577.933 43.7866C577.764 43.7013 577.615 43.5824 577.494 43.4373L574.153 40.2571C573.912 40.0402 573.764 39.7397 573.738 39.4173C573.73 39.2471 573.757 39.0769 573.819 38.9179C573.881 38.759 573.976 38.6148 574.097 38.4949C575.142 37.5046 576.412 36.7818 577.798 36.3886C579.373 35.9191 581.018 35.7281 582.659 35.8241C584.465 35.9338 586.242 36.3336 587.92 37.0081C589.715 37.7138 591.353 38.7665 592.739 40.1057H592.794Z" fill="#756FB3"/>
<g opacity="0.6">
<path d="M572.081 65.0654C572.225 65.2063 572.34 65.3745 572.418 65.5601C572.496 65.7456 572.536 65.9449 572.536 66.1461C572.536 66.3473 572.496 66.5465 572.418 66.7321C572.34 66.9177 572.225 67.0858 572.081 67.2268L568.629 70.8613C568.491 71.008 568.324 71.1251 568.139 71.2056C567.953 71.286 567.754 71.3282 567.552 71.3294C567.35 71.3367 567.148 71.304 566.958 71.2331C566.768 71.1622 566.595 71.0546 566.447 70.9164L562.926 67.5434C562.779 67.4055 562.661 67.2392 562.581 67.0546C562.5 66.87 562.458 66.671 562.456 66.4696C562.446 66.2675 562.477 66.0654 562.549 65.8759C562.62 65.6864 562.729 65.5136 562.871 65.3682L566.337 61.7475C566.626 61.4642 567.015 61.3054 567.421 61.3054C567.826 61.3054 568.215 61.4642 568.505 61.7475L572.081 65.0654ZM592.794 40.1057C594.079 41.3186 595.181 42.7096 596.067 44.2358C596.921 45.682 597.515 47.2662 597.821 48.9166C598.08 50.4986 598 52.1173 597.586 53.6662C597.146 55.1318 596.403 56.4898 595.407 57.6537C594.411 58.8175 593.183 59.7616 591.8 60.4259C590.72 60.9014 589.575 61.2168 588.403 61.362C587.262 61.49 586.112 61.5223 584.965 61.4584L581.706 61.2794C580.734 61.2271 579.759 61.2593 578.792 61.3758C577.926 61.4711 577.104 61.8048 576.417 62.3395C576.092 62.5843 575.704 62.7323 575.299 62.7663C575.105 62.788 574.909 62.7658 574.724 62.7014C574.54 62.6371 574.373 62.5322 574.235 62.3946L571.101 59.4209C570.799 59.137 570.62 58.7466 570.604 58.3333C570.584 58.1299 570.614 57.9248 570.691 57.7354C570.768 57.546 570.889 57.378 571.046 57.2457C572.008 56.292 573.154 55.5426 574.415 55.043C575.549 54.623 576.732 54.35 577.936 54.2307C579.099 54.1345 580.267 54.1345 581.43 54.2307C582.58 54.3317 583.658 54.4005 584.661 54.4372C585.584 54.4836 586.51 54.4328 587.423 54.2858C588.209 54.164 588.932 53.7864 589.48 53.2119C589.965 52.7123 590.32 52.1033 590.518 51.4369C590.715 50.7704 590.747 50.0664 590.613 49.3847C590.269 47.6959 589.37 46.1696 588.058 45.0481C586.955 43.9726 585.546 43.2631 584.024 43.0167C582.501 42.7703 580.939 42.9989 579.552 43.6714C579.211 43.8208 578.846 43.9094 578.475 43.9329C578.286 43.9216 578.102 43.8718 577.933 43.7866C577.764 43.7013 577.615 43.5824 577.494 43.4373L574.153 40.2571C573.912 40.0402 573.764 39.7397 573.738 39.4173C573.73 39.2471 573.757 39.0769 573.819 38.9179C573.881 38.759 573.976 38.6148 574.097 38.4949C575.142 37.5046 576.412 36.7818 577.798 36.3886C579.373 35.9191 581.018 35.7281 582.659 35.8241C584.465 35.9338 586.242 36.3336 587.92 37.0081C589.715 37.7138 591.353 38.7665 592.739 40.1057H592.794Z" fill="white"/>
</g>
<path d="M80.7355 411.209C85.1129 413.866 90.9265 413.962 96.4086 412.049L100.551 383.138L81.2189 378.209L80.7355 411.209Z" fill="#FFA8A7"/>
<path d="M111.93 438.88C112.413 439.376 112.123 443.01 111.529 443.823C110.935 444.635 107.608 447.388 101.476 447.498C95.6353 447.595 90.4294 446.535 87.1705 444.181C83.9116 441.826 82.3512 439.362 82.1993 436.03C82.0474 432.699 82.5998 429.546 81.1637 426.917C79.7275 424.287 78.0014 422.084 77.5596 420.79C77.0408 418.446 77.0408 416.017 77.5596 413.673L111.93 438.88Z" fill="#263238"/>
<path d="M97.748 410.838C97.7752 412.093 97.9513 413.341 98.2727 414.555C99.0257 417.159 100.087 419.663 101.435 422.017C102.105 423.245 102.857 424.427 103.686 425.555C105.329 427.744 107.428 429.575 109.209 431.681C111.1 433.677 112.237 436.266 112.427 439.005C112.427 443.576 107.387 444.856 103.534 445.324C99.3474 445.834 95.0995 445.396 91.1059 444.044C89.0159 443.378 87.1629 442.125 85.7693 440.435C84.3756 438.745 83.5005 436.69 83.2487 434.517C83.0968 433.237 83.2487 431.956 83.1659 430.676C82.822 427.739 81.7494 424.933 80.0451 422.512C79.0542 421.111 78.2207 419.606 77.5595 418.024C76.51 415.147 77.6423 412.022 78.5537 409.255C79.3408 406.873 79.9346 403.995 80.8184 404.271C80.8184 404.753 80.8184 405.826 80.8184 405.826C81.0669 406.363 81.6745 406.749 81.8264 407.382C81.9697 408.036 82.1683 408.676 82.4202 409.296C82.7962 410.254 83.4623 411.072 84.3258 411.636C84.4777 409.915 84.6296 408.194 84.7677 406.487C84.7285 406.216 84.7518 405.939 84.8359 405.678C84.92 405.418 85.0627 405.179 85.253 404.981C85.4434 404.784 85.6765 404.632 85.9345 404.537C86.1926 404.443 86.4689 404.408 86.7424 404.436C89.9816 403.845 93.2919 403.748 96.5604 404.147C96.8066 404.165 97.0468 404.232 97.2672 404.343C97.4875 404.454 97.6838 404.607 97.8446 404.794C98.0132 405.16 98.0662 405.568 97.9965 405.964C97.8256 407.583 97.7426 409.21 97.748 410.838Z" fill="#756FB3"/>
<path opacity="0.2" d="M97.748 410.838C97.7752 412.093 97.9513 413.341 98.2727 414.555C99.0257 417.159 100.087 419.663 101.435 422.017C102.105 423.245 102.857 424.427 103.686 425.555C105.329 427.744 107.428 429.575 109.209 431.681C111.1 433.677 112.237 436.266 112.427 439.005C112.427 443.576 107.387 444.856 103.534 445.324C99.3474 445.834 95.0995 445.396 91.1059 444.044C89.0159 443.378 87.1629 442.125 85.7693 440.435C84.3756 438.745 83.5005 436.69 83.2487 434.517C83.0968 433.237 83.2487 431.956 83.1659 430.676C82.822 427.739 81.7494 424.933 80.0451 422.512C79.0542 421.111 78.2207 419.606 77.5595 418.024C76.51 415.147 77.6423 412.022 78.5537 409.255C79.3408 406.873 79.9346 403.995 80.8184 404.271C80.8184 404.753 80.8184 405.826 80.8184 405.826C81.0669 406.363 81.6745 406.749 81.8264 407.382C81.9697 408.036 82.1683 408.676 82.4202 409.296C82.7962 410.254 83.4623 411.072 84.3258 411.636C84.4777 409.915 84.6296 408.194 84.7677 406.487C84.7285 406.216 84.7518 405.939 84.8359 405.678C84.92 405.418 85.0627 405.179 85.253 404.981C85.4434 404.784 85.6765 404.632 85.9345 404.537C86.1926 404.443 86.4689 404.408 86.7424 404.436C89.9816 403.845 93.2919 403.748 96.5604 404.147C96.8066 404.165 97.0468 404.232 97.2672 404.343C97.4875 404.454 97.6838 404.607 97.8446 404.794C98.0132 405.16 98.0662 405.568 97.9965 405.964C97.8256 407.583 97.7426 409.21 97.748 410.838Z" fill="black"/>
<path d="M102.001 423.008C100.372 421.631 96.5605 421.425 94.4615 421.535C92.3351 421.606 90.2604 422.207 88.4271 423.284C88.1562 423.448 87.8367 423.515 87.5224 423.472C87.208 423.429 86.9179 423.28 86.701 423.049C86.5734 422.915 86.4769 422.755 86.4181 422.58C86.3594 422.404 86.3399 422.218 86.3609 422.034C86.382 421.851 86.4431 421.674 86.54 421.516C86.6369 421.359 86.7673 421.224 86.9219 421.122C88.9511 419.804 91.3083 419.074 93.7297 419.016C98.9494 418.933 100.33 419.869 100.33 419.869C100.33 419.869 102.595 421.521 102.001 423.008Z" fill="#455A64"/>
<path d="M105.661 427.881C103.589 426.504 99.3913 426.504 97.2924 426.573C95.2049 426.672 93.1806 427.317 91.4236 428.445C91.1514 428.614 90.8289 428.682 90.5115 428.64C90.1941 428.597 89.9015 428.446 89.6837 428.211C89.5545 428.077 89.4568 427.916 89.3977 427.74C89.3387 427.564 89.3197 427.377 89.3421 427.192C89.3646 427.008 89.428 426.83 89.5277 426.673C89.6273 426.516 89.7608 426.383 89.9184 426.284C91.9595 424.892 94.352 424.1 96.8229 423.999C101.974 423.902 103.258 425.031 103.258 425.031C103.85 425.292 104.374 425.684 104.791 426.178C105.207 426.672 105.505 427.255 105.661 427.881Z" fill="#455A64"/>
<path d="M91.9483 414.018C94.1291 413.758 96.3403 414.061 98.3694 414.899C99.2394 415.463 99.7503 416.909 99.1565 417.239C97.3657 416.411 95.3969 416.037 93.4259 416.152C91.496 416.237 89.5951 416.651 87.8057 417.377C87.35 417.542 86.8253 417.79 86.4248 418.01C86.2773 418.086 86.1157 418.13 85.9502 418.14C85.7847 418.15 85.619 418.126 85.4633 418.069C85.3077 418.012 85.1655 417.924 85.0458 417.809C84.9261 417.695 84.8314 417.557 84.7677 417.405C84.6811 417.15 84.6861 416.873 84.7819 416.622C84.8776 416.371 85.0582 416.161 85.2925 416.028C87.3424 414.893 89.6115 414.208 91.9483 414.018Z" fill="#455A64"/>
<path d="M135.225 400.347C138.595 408.759 143.87 406.171 151.906 401.325L153.121 372.607L132.671 370.721L135.225 400.347Z" fill="#FFA8A7"/>
<path d="M182.755 420.598C183.128 421.95 182.97 423.392 182.313 424.632C181.678 425.788 175.285 428.955 166.93 427.936C160.736 427.176 154.86 424.77 149.918 420.97C146.838 418.684 143.538 418.12 139.395 417.652C135.253 417.184 132.146 415.752 131.331 413.77C130.516 411.787 131.759 408.511 131.759 408.511L182.755 420.598Z" fill="#263238"/>
<path d="M150.222 394.125C150.977 393.966 151.719 393.754 152.445 393.491C152.85 393.342 153.296 393.342 153.701 393.491C154.226 393.725 154.392 394.359 154.516 394.868C154.634 396.114 154.874 397.345 155.234 398.544C155.799 399.539 156.549 400.417 157.444 401.132C159.434 402.908 161.604 404.472 163.92 405.799C166.585 407.424 169.209 408.704 171.957 410.122C174.705 411.54 178.557 412.559 180.739 414.252C183.901 416.648 184.026 422.223 180.159 424.206C176.831 425.927 168.214 427.524 159.446 424.522C154.654 422.884 149.545 417.419 143.193 416.579C139.147 416.056 133.761 415.422 131.317 412.215C130.434 410.838 131.207 406.845 131.925 402.178C132.574 398.048 133.168 391.44 134.507 391.881L134.604 393.147L136.233 395.088C136.59 395.467 136.968 395.826 137.366 396.162C137.802 396.671 138.262 397.158 138.746 397.622C139.403 398.182 140.219 398.524 141.08 398.599C141.488 398.625 141.895 398.534 142.254 398.337C142.944 397.952 143.041 397.043 143.635 396.479C144.277 395.821 145.048 395.3 145.899 394.951C147.082 394.531 148.319 394.281 149.573 394.207C149.79 394.194 150.007 394.166 150.222 394.125Z" fill="#756FB3"/>
<path opacity="0.2" d="M150.222 394.125C150.977 393.966 151.719 393.754 152.445 393.491C152.85 393.342 153.296 393.342 153.701 393.491C154.226 393.725 154.392 394.359 154.516 394.868C154.634 396.114 154.874 397.345 155.234 398.544C155.799 399.539 156.549 400.417 157.444 401.132C159.434 402.908 161.604 404.472 163.92 405.799C166.585 407.424 169.209 408.704 171.957 410.122C174.705 411.54 178.557 412.559 180.739 414.252C183.901 416.648 184.026 422.223 180.159 424.206C176.831 425.927 168.214 427.524 159.446 424.522C154.654 422.884 149.545 417.419 143.193 416.579C139.147 416.056 133.761 415.422 131.317 412.215C130.434 410.838 131.207 406.845 131.925 402.178C132.574 398.048 133.168 391.44 134.507 391.881L134.604 393.147L136.233 395.088C136.59 395.467 136.968 395.826 137.366 396.162C137.802 396.671 138.262 397.158 138.746 397.622C139.403 398.182 140.219 398.524 141.08 398.599C141.488 398.625 141.895 398.534 142.254 398.337C142.944 397.952 143.041 397.043 143.635 396.479C144.277 395.821 145.048 395.3 145.899 394.951C147.082 394.531 148.319 394.281 149.573 394.207C149.79 394.194 150.007 394.166 150.222 394.125Z" fill="black"/>
<path d="M160.261 403.349C159.995 402.777 159.591 402.28 159.085 401.903C158.578 401.525 157.986 401.28 157.361 401.187C155.538 400.747 152.21 401.931 150.097 403.486C149.897 403.632 149.735 403.824 149.626 404.046C149.517 404.268 149.464 404.514 149.472 404.761C149.481 405.008 149.549 405.25 149.673 405.464C149.796 405.679 149.97 405.86 150.18 405.992C150.446 406.152 150.755 406.228 151.065 406.211C151.375 406.194 151.673 406.084 151.92 405.896C154.256 403.986 157.253 403.071 160.261 403.349Z" fill="#455A64"/>
<path d="M165.798 406.886C165.426 406.301 164.918 405.812 164.317 405.463C163.716 405.113 163.04 404.912 162.346 404.876C159.497 404.848 156.712 405.72 154.392 407.368C154.195 407.504 154.035 407.685 153.924 407.896C153.813 408.107 153.755 408.342 153.755 408.58C153.755 408.818 153.813 409.053 153.924 409.264C154.035 409.475 154.195 409.656 154.392 409.791C154.65 409.947 154.95 410.019 155.251 410C155.553 409.98 155.841 409.869 156.076 409.681C157.381 408.515 158.933 407.658 160.616 407.174C162.3 406.69 164.071 406.592 165.798 406.886Z" fill="#455A64"/>
<path d="M171.957 410.108C171.526 409.561 170.983 409.113 170.363 408.795C169.744 408.477 169.063 408.295 168.366 408.263C165.617 408.285 162.945 409.172 160.73 410.796C160.538 410.939 160.383 411.125 160.28 411.34C160.176 411.555 160.126 411.791 160.134 412.03C160.142 412.268 160.208 412.501 160.326 412.708C160.445 412.915 160.612 413.091 160.813 413.219C161.064 413.388 161.363 413.47 161.665 413.452C161.967 413.435 162.254 413.319 162.484 413.123C163.717 411.917 165.216 411.016 166.861 410.493C168.506 409.969 170.251 409.837 171.957 410.108Z" fill="#455A64"/>
<path d="M80.197 333.701C80.8184 319.838 83.7735 312.624 84.1877 308.783C84.1877 308.783 85.3201 232.513 87.1843 209.371L155.676 206.466C156.684 231.247 157.595 297.824 157.057 306.635C156.546 315.074 153.108 388.274 153.108 388.274C143.441 391.289 133.126 386.897 133.126 386.897C133.126 386.897 127.382 345.252 126.443 336.069C125.776 327.81 125.989 319.503 127.078 311.288L122.701 251.993C122.701 251.993 117.412 297.975 114.802 315.322C111.819 335.16 98.9494 396.658 98.9494 396.658C89.6975 398.957 80.6941 394.978 80.6941 394.978C80.6941 394.978 79.2856 353.787 80.197 333.701Z" fill="#455A64"/>
<path d="M122.714 252.048L124.012 243.87C128.003 243.278 138.111 236.987 144.09 231.48C139.831 237.906 134.068 243.202 127.299 246.913L127.092 311.315L122.714 252.048Z" fill="#37474F"/>
<path d="M150.802 166.294C146.148 155.707 138.139 137.879 138.139 137.879L136.109 108.968C139.072 109.062 142.027 109.324 144.96 109.752C149.269 110.427 156.104 114.53 159.225 122.267C161.559 128.008 173.683 163.031 173.683 163.031L194.81 151.935C200.223 148.507 202.143 142.821 205.595 139.544C209.047 136.268 212.499 135.772 216.324 133.143C220.149 130.513 221.655 128.407 222.621 131.036C223.588 133.666 219.307 137.7 218.479 138.705C217.65 139.71 213.494 141.857 218.796 142.133C224.099 142.408 234.828 137.259 237.397 136.378C239.965 135.497 239.744 138.539 238.405 140.426C237.065 142.312 236.927 147.846 234.69 150.944C232.315 154.248 231.031 155.666 225.935 157.634C221.199 159.452 211.381 159.92 206.327 162.825C201.273 165.729 189.038 176.757 180.877 182.415C169.927 190.014 163.768 190.51 159.473 184.453C155.179 178.395 152.445 170.025 150.802 166.294Z" fill="#FFA8A7"/>
<path d="M133.251 108.348C140.431 107.797 148.896 108.237 153.577 112.478C157.319 115.878 158.728 117.984 162.898 129.742C165.66 137.63 171.57 155.803 171.57 155.803C163.455 157.628 156.173 162.076 150.857 168.455L137.393 138.291L133.251 108.348Z" fill="#E0E0E0"/>
<path d="M173.683 162.962C170.044 164.246 166.913 166.658 164.748 169.845C164.748 169.845 165.259 164.338 173.034 161.048L173.683 162.962Z" fill="#F28F8F"/>
<path d="M116.059 107.054C112.657 106.914 109.255 107.285 105.964 108.155C99.6536 109.821 88.3442 112.988 88.3442 112.988C84.7539 114.846 83.3592 121.041 82.5445 124.607C79.9484 136.02 86.6871 161.778 87.7228 171.814C88.7585 181.85 86.5214 212.592 86.5214 212.592C94.2406 221.513 136.068 227.433 156.436 212.592C156.436 212.592 157.319 142.009 155.317 131.876C152.279 116.54 147.764 109.257 131.842 108.334L116.059 107.054Z" fill="#F5F5F5"/>
<path d="M124.993 69.1943L120.45 71.6862C120.135 71.0626 120.07 70.3432 120.268 69.6736C120.465 69.004 120.91 68.4341 121.513 68.0792C121.813 67.9167 122.143 67.8165 122.484 67.7848C122.824 67.7531 123.167 67.7905 123.492 67.8947C123.817 67.999 124.118 68.1679 124.376 68.3913C124.634 68.6146 124.844 68.8878 124.993 69.1943Z" fill="#263238"/>
<path d="M144.753 71.0114L140.611 67.8312C140.805 67.5519 141.055 67.315 141.344 67.135C141.634 66.9549 141.957 66.8355 142.294 66.784C142.631 66.7325 142.975 66.7499 143.306 66.8353C143.636 66.9207 143.945 67.0722 144.215 67.2806C144.763 67.7176 145.125 68.3466 145.225 69.0397C145.325 69.7328 145.156 70.4379 144.753 71.0114Z" fill="#263238"/>
<path d="M104.114 54.7803C104.114 54.7803 99.2255 55.4549 97.4304 59.172C95.8838 62.3659 96.4362 70.0755 98.5213 78.4459C99.6997 83.8768 101.459 89.166 103.769 94.2229C104.585 95.6557 105.918 96.7241 107.497 97.2104L107.235 87.2155L106.876 80.332C106.876 80.332 111.336 74.2469 111.833 69.3183C112.468 62.9028 111.115 60.2733 111.115 60.2733L104.114 54.7803Z" fill="#263238"/>
<path d="M111.999 64.417C112.017 69.35 113.997 74.0743 117.505 77.5534C121.013 81.0325 125.762 82.9823 130.71 82.975C141.011 82.975 148.744 74.5082 148.661 64.2242C148.578 53.9402 140.845 45.7075 130.53 45.7488C125.593 45.7852 120.871 47.7699 117.398 51.2685C113.926 54.767 111.984 59.4947 111.999 64.417Z" fill="#263238"/>
<path d="M107.235 79.1614C105.55 80.6207 104.183 76.8623 102.774 75.3892C101.366 73.9162 96.74 71.9337 94.4891 76.766C92.2383 81.5982 96.5052 88.6056 100.013 89.9548C101.071 90.3545 102.234 90.3871 103.314 90.0475C104.394 89.7078 105.327 89.0156 105.964 88.0825V110.11C111.281 119.664 120.657 119.361 125.669 118.824C130.682 118.287 131.773 113.097 128.114 108.912V102.029C130.899 102.464 133.723 102.598 136.537 102.428C141.122 101.712 143.441 98.2977 144.822 93.3002C147.032 85.3291 147.929 71.9475 144.822 56.4871C139.685 52.5222 121.872 53.183 111.087 59.9977C111.93 73.8611 108.836 77.7159 107.235 79.1614Z" fill="#FFA8A7"/>
<path d="M145.734 48.8329C146.427 45.9629 146.739 43.0143 146.659 40.0633C146.659 38.9068 146.369 37.5026 145.278 37.0621C144.187 36.6215 143.11 37.42 142.171 38.0533C138.194 40.7241 133.251 41.4813 128.459 41.7429C120.174 42.1972 107.511 41.6603 103.299 50.7052C102.125 53.2108 101.918 55.8541 104.238 57.5887C106.307 58.9701 108.672 59.8472 111.143 60.1494C115.285 60.8791 119.428 61.7877 123.681 62.3521C127.934 62.9166 132.988 63.4673 137.2 62.1732C140.749 61.0856 144.353 60.1494 146.99 57.3409C149.276 54.892 150.566 51.6824 150.608 48.3373C150.608 47.8692 150.512 47.2772 150.042 47.1533C149.807 47.1239 149.57 47.1723 149.365 47.291L145.734 48.8329Z" fill="#263238"/>
<path d="M128.072 102.18C128.072 102.18 117.826 100.156 114.263 98.2703C112.153 97.1803 110.421 95.4821 109.292 93.3967C109.817 95.48 110.756 97.4369 112.054 99.1514C114.691 102.483 128.045 104.892 128.045 104.892L128.072 102.18Z" fill="#F28F8F"/>
<path d="M126.015 75.9541C126.001 76.4057 125.854 76.8432 125.593 77.2121C125.331 77.581 124.967 77.865 124.544 78.0285C124.122 78.192 123.661 78.2278 123.218 78.1315C122.775 78.0352 122.371 77.8109 122.055 77.4868C121.739 77.1627 121.527 76.7531 121.443 76.3091C121.36 75.8651 121.409 75.4064 121.585 74.9903C121.762 74.5742 122.057 74.2191 122.435 73.9694C122.812 73.7197 123.255 73.5864 123.709 73.5862C124.329 73.5971 124.919 73.8522 125.352 74.2959C125.784 74.7396 126.022 75.3357 126.015 75.9541Z" fill="#263238"/>
<path d="M129.329 91.8547C129.34 92.4366 129.12 92.9992 128.716 93.4197C128.312 93.8402 127.758 94.0843 127.175 94.0987C126.587 94.0879 126.028 93.8458 125.62 93.4253C125.211 93.0049 124.985 92.4402 124.993 91.8547C124.987 91.5672 125.039 91.2815 125.144 91.0138C125.249 90.7461 125.406 90.5018 125.607 90.2947C125.807 90.0876 126.046 89.9218 126.31 89.8068C126.574 89.6918 126.859 89.6298 127.147 89.6245C127.732 89.6353 128.289 89.8755 128.697 90.293C129.106 90.7104 129.333 91.2716 129.329 91.8547Z" fill="#B16668"/>
<path d="M123.115 68.7261L118.365 71.7135C117.973 71.0635 117.849 70.2872 118.019 69.5479C118.189 68.8086 118.639 68.1637 119.276 67.7486C119.591 67.5562 119.941 67.4286 120.307 67.3736C120.672 67.3186 121.045 67.3372 121.403 67.4284C121.761 67.5195 122.097 67.6813 122.391 67.9042C122.685 68.1271 122.931 68.4066 123.115 68.7261Z" fill="#263238"/>
<path d="M139.879 65.8075L144.878 68.0377C144.743 68.3649 144.543 68.6613 144.29 68.9092C144.037 69.1571 143.736 69.3513 143.405 69.48C143.075 69.6087 142.722 69.6692 142.367 69.6579C142.013 69.6467 141.664 69.5638 141.342 69.4144C140.69 69.1051 140.177 68.5629 139.906 67.895C139.635 67.2271 139.625 66.4822 139.879 65.8075Z" fill="#263238"/>
<path d="M142.516 75.2654C142.5 75.6993 142.356 76.1189 142.103 76.4721C141.85 76.8253 141.498 77.0965 141.091 77.2521C140.685 77.4077 140.241 77.4408 139.816 77.3472C139.39 77.2537 139.002 77.0377 138.699 76.7261C138.396 76.4144 138.191 76.0208 138.11 75.5941C138.029 75.1675 138.076 74.7265 138.244 74.3261C138.412 73.9256 138.695 73.5832 139.057 73.3415C139.419 73.0998 139.844 72.9693 140.279 72.9663C140.881 72.9772 141.454 73.2251 141.873 73.6559C142.292 74.0866 142.524 74.6653 142.516 75.2654Z" fill="#263238"/>
<path d="M131.221 71.3833L132.049 86.6922L139.326 84.7649L131.221 71.3833Z" fill="#F28F8F"/>
<path d="M2.28759 134.436C4.67652 135.716 14.4117 142.545 19.7005 143.137C21.9376 143.385 22.5451 143.027 22.4623 142.449C22.3518 141.65 20.9295 140.452 20.5843 139.805C19.9905 138.676 16.4416 133.996 17.8225 131.545C19.2034 129.095 20.4048 131.435 23.6913 134.643C26.9778 137.85 30.3471 138.965 33.2332 142.696C36.1192 146.427 37.0858 152.333 41.8637 156.615L60.8923 169.57C60.8923 169.57 69.7575 128.558 73.6516 123.725C77.7943 118.645 95.5662 129.714 91.8378 145.863C88.1094 162.012 79.617 190.041 73.7068 195.534C69.8956 199.1 61.8727 195.741 51.8613 186.861C43.9488 179.84 33.1089 169.308 28.5244 165.577C23.9398 161.846 14.4117 159.836 10.0343 157.317C5.32554 154.564 4.28987 152.953 2.48092 149.305C0.782431 145.877 1.54192 140.383 0.533872 138.291C-0.474172 136.198 -0.142759 133.156 2.28759 134.436Z" fill="#FFA8A7"/>
<path d="M88.3442 112.987C94.4477 116.787 94.7515 122.321 95.0553 128.654C95.1417 136.067 93.9651 143.441 91.5755 150.461C88.9932 158.432 84.892 172.984 84.892 172.984C84.892 172.984 68.9566 173.356 60.7542 166.293C60.7542 166.293 64.4963 150.599 67.1338 138.759C69.7713 126.92 72.975 114.323 88.3442 112.987Z" fill="#E0E0E0"/>
<path d="M60.8232 169.597C65.173 172.007 67.7276 177.183 68.5147 179.234C68.3264 176.846 67.5723 174.536 66.3144 172.494C65.0566 170.453 63.3308 168.738 61.2789 167.491L60.8232 169.597Z" fill="#F28F8F"/>
<path d="M226.142 467.145L332.719 528.491V551.097L226.142 489.751V467.145Z" fill="#756FB3"/>
<path opacity="0.35" d="M226.142 467.145L332.719 528.491V551.097L226.142 489.751V467.145Z" fill="black"/>
<path d="M439.296 467.145L332.719 528.491V551.097L439.296 489.751V467.145Z" fill="#756FB3"/>
<path opacity="0.2" d="M439.296 467.145L332.719 528.491V551.097L439.296 489.751V467.145Z" fill="black"/>
<path d="M439.296 467.146L332.719 405.813L226.142 467.146L332.719 528.492L439.296 467.146Z" fill="#756FB3"/>
<path opacity="0.15" d="M439.296 467.146L332.719 405.813L226.142 467.146L332.719 528.492L439.296 467.146Z" fill="black"/>
<path opacity="0.1" d="M332.719 528.491V522.034L237.355 467.145H226.142L332.719 528.491Z" fill="black"/>
<path opacity="0.1" d="M332.719 405.813V412.27L428.083 467.145H439.296L332.719 405.813Z" fill="black"/>
<path d="M439.296 467.145H428.083L332.719 522.034V528.491L439.296 467.145Z" fill="#756FB3"/>
<path d="M332.719 405.813V412.27L237.355 467.146H226.142L332.719 405.813Z" fill="#756FB3"/>
<path d="M333.106 440.519L378.896 466.87C382.32 468.852 382.32 472.046 378.896 474.015L344.746 493.729C342.823 494.709 340.693 495.22 338.533 495.22C336.372 495.22 334.242 494.709 332.319 493.729L286.528 467.379C283.104 465.397 283.104 462.203 286.528 460.234L320.692 440.519C322.614 439.542 324.741 439.032 326.899 439.032C329.056 439.032 331.184 439.542 333.106 440.519Z" fill="#37474F"/>
<path d="M344.746 493.729L377.763 474.717L333.106 449.014C331.178 448.046 329.05 447.541 326.892 447.541C324.733 447.541 322.605 448.046 320.678 449.014L287.661 468.054L332.319 493.729C334.242 494.709 336.372 495.22 338.533 495.22C340.693 495.22 342.823 494.709 344.746 493.729Z" fill="#455A64"/>
<path d="M305.447 467.187L325.483 455.664C325.856 455.477 326.267 455.38 326.685 455.38C327.102 455.38 327.513 455.477 327.886 455.664L330.344 457.04C331.007 457.412 331.007 458.031 330.344 458.417L310.307 469.94C309.937 470.126 309.528 470.223 309.113 470.223C308.698 470.223 308.289 470.126 307.918 469.94L305.46 468.563C305.317 468.515 305.192 468.423 305.103 468.3C305.014 468.178 304.966 468.031 304.964 467.88C304.963 467.729 305.008 467.581 305.095 467.457C305.181 467.332 305.304 467.238 305.447 467.187Z" fill="#263238"/>
<path d="M335.37 484.437L355.407 472.914C355.777 472.727 356.186 472.63 356.601 472.63C357.016 472.63 357.425 472.727 357.796 472.914L360.268 474.29C360.93 474.662 360.93 475.281 360.268 475.667L340.231 487.19C339.861 487.376 339.451 487.473 339.037 487.473C338.622 487.473 338.212 487.376 337.842 487.19L335.384 485.813C335.241 485.765 335.116 485.673 335.027 485.55C334.938 485.428 334.889 485.281 334.888 485.13C334.886 484.979 334.932 484.831 335.018 484.707C335.105 484.582 335.228 484.488 335.37 484.437Z" fill="#263238"/>
<path d="M286.418 511.792C286.305 509.703 285.699 507.669 284.648 505.858C283.596 504.047 282.131 502.509 280.37 501.371C279.761 500.927 279.043 500.655 278.293 500.582C277.542 500.51 276.786 500.639 276.103 500.958L273.493 502.472C272.879 502.904 272.391 503.491 272.08 504.174C271.769 504.856 271.647 505.609 271.725 506.354C271.84 508.444 272.446 510.477 273.494 512.29C274.542 514.102 276.004 515.644 277.76 516.79C278.372 517.233 279.091 517.505 279.844 517.578C280.596 517.65 281.355 517.521 282.041 517.203L284.637 515.647C285.247 515.217 285.733 514.635 286.046 513.958C286.359 513.281 286.487 512.534 286.418 511.792Z" fill="#756FB3"/>
<path opacity="0.1" d="M277.76 502.926C279.521 504.065 280.987 505.602 282.038 507.414C283.089 509.225 283.695 511.258 283.808 513.348C283.808 517.189 281.046 518.744 277.76 516.831C276.004 515.685 274.542 514.143 273.494 512.331C272.446 510.518 271.84 508.485 271.725 506.395C271.725 502.568 274.432 501.012 277.76 502.926Z" fill="black"/>
<path d="M207.708 546.898C200.969 547.015 194.313 545.408 188.375 542.231L117.674 501.535C111.999 498.259 108.864 493.743 108.864 488.814C108.864 483.886 111.999 479.384 117.674 476.107L199.588 428.955C208.564 423.793 216.159 410.7 216.159 400.361V141.912C216.159 141.182 216.45 140.481 216.968 139.965C217.486 139.449 218.188 139.159 218.92 139.159C219.653 139.159 220.355 139.449 220.873 139.965C221.391 140.481 221.682 141.182 221.682 141.912V400.361C221.682 412.834 213.204 427.496 202.35 433.732L120.436 480.885C116.542 483.129 114.388 485.937 114.388 488.814C114.388 491.692 116.542 494.514 120.436 496.758L191.137 537.454C200.265 542.713 215.123 542.713 224.278 537.454L276.407 507.469C276.721 507.27 277.072 507.136 277.44 507.076C277.808 507.015 278.184 507.03 278.545 507.118C278.907 507.206 279.247 507.367 279.545 507.59C279.843 507.812 280.093 508.093 280.279 508.415C280.466 508.736 280.585 509.092 280.63 509.46C280.675 509.829 280.644 510.203 280.541 510.56C280.437 510.916 280.262 511.248 280.026 511.536C279.79 511.823 279.498 512.06 279.168 512.232L227.04 542.231C221.103 545.411 214.446 547.018 207.708 546.898Z" fill="#37474F"/>
<path d="M83.6492 43.0782C83.6083 42.8916 83.6068 42.6985 83.6449 42.5113C83.6829 42.324 83.7596 42.1467 83.8701 41.9906C83.9742 41.8274 84.1116 41.6879 84.2734 41.5811C84.4352 41.4744 84.6177 41.4028 84.8091 41.3711L91.5202 40.077C91.7095 40.0343 91.9058 40.0318 92.0961 40.0697C92.2865 40.1077 92.4667 40.1852 92.6249 40.2973C92.9457 40.5175 93.1685 40.853 93.2463 41.2335L94.282 46.6026C94.3209 46.7902 94.3201 46.9838 94.2797 47.1711C94.2393 47.3584 94.1601 47.5352 94.0472 47.6902C93.9461 47.8545 93.8115 47.9957 93.6521 48.1048C93.4927 48.2139 93.3121 48.2884 93.122 48.3235L86.3971 49.6038C86.2099 49.6446 86.0163 49.6461 85.8284 49.6081C85.6406 49.5702 85.4628 49.4937 85.3062 49.3836C85.1425 49.2798 85.0026 49.1428 84.8955 48.9815C84.7884 48.8202 84.7166 48.6382 84.6848 48.4474L83.6492 43.0782ZM78.0428 14.0848C78.0047 13.8958 78.0045 13.7012 78.0423 13.5121C78.0801 13.323 78.1551 13.1433 78.2629 12.9833C78.3708 12.8233 78.5094 12.6862 78.6707 12.5799C78.832 12.4736 79.0128 12.4002 79.2027 12.3639L85.9276 11.0698C86.1158 11.031 86.31 11.0318 86.4979 11.0721C86.6857 11.1124 86.863 11.1913 87.0185 11.3039C87.1807 11.4061 87.3197 11.541 87.4267 11.6998C87.5337 11.8586 87.6063 12.0379 87.6399 12.2263L92.0449 35.176C92.0839 35.3635 92.0831 35.5572 92.0427 35.7444C92.0023 35.9317 91.9231 36.1085 91.8102 36.2636C91.7076 36.4252 91.5724 36.5638 91.4131 36.6705C91.2538 36.7772 91.0739 36.8496 90.885 36.8831L84.1601 38.1772C83.9719 38.216 83.7777 38.2152 83.5899 38.1749C83.402 38.1346 83.2247 38.0557 83.0692 37.9431C82.907 37.8409 82.768 37.706 82.661 37.5472C82.554 37.3884 82.4814 37.2091 82.4478 37.0207L78.0428 14.0848Z" fill="#756FB3"/>
<path d="M72.4364 65.5459C72.3073 65.4033 72.2077 65.2366 72.1433 65.0555C72.079 64.8744 72.0512 64.6824 72.0614 64.4905C72.0717 64.2986 72.1199 64.1107 72.2032 63.9374C72.2865 63.7642 72.4033 63.609 72.5469 63.4809L77.6423 58.924C77.7846 58.7934 77.9527 58.6941 78.1359 58.6324C78.319 58.5708 78.5131 58.5481 78.7056 58.566C78.897 58.5701 79.0855 58.6138 79.259 58.6944C79.4325 58.775 79.5874 58.8907 79.7137 59.0341L83.373 63.1642C83.5021 63.3069 83.6017 63.4735 83.6661 63.6546C83.7304 63.8357 83.7583 64.0278 83.748 64.2196C83.7377 64.4115 83.6896 64.5994 83.6063 64.7727C83.5229 64.946 83.4061 65.1011 83.2625 65.2293L78.2361 69.7311C78.0939 69.8616 77.9258 69.961 77.7426 70.0226C77.5594 70.0843 77.3653 70.1069 77.1728 70.089C76.9815 70.0849 76.793 70.0412 76.6195 69.9606C76.4459 69.8801 76.2911 69.7644 76.1648 69.621L72.4364 65.5459ZM52.676 43.5186C52.4161 43.2282 52.2821 42.8471 52.3031 42.4585C52.309 42.2667 52.355 42.0782 52.4382 41.9051C52.5215 41.732 52.6401 41.5782 52.7865 41.4535L57.8819 36.8966C58.023 36.7636 58.1906 36.6618 58.3738 36.5978C58.557 36.5337 58.7517 36.5089 58.9452 36.5249C59.1376 36.5308 59.3267 36.5766 59.5003 36.6596C59.6739 36.7426 59.8282 36.8609 59.9532 37.0068L75.5848 54.4359C75.7158 54.5777 75.8154 54.7453 75.8772 54.9279C75.9391 55.1105 75.9618 55.304 75.9438 55.496C75.9397 55.6868 75.8959 55.8746 75.8151 56.0476C75.7342 56.2207 75.6182 56.375 75.4744 56.5009L70.3651 61.0579C70.2245 61.1866 70.0586 61.2849 69.878 61.3465C69.6973 61.4081 69.5059 61.4317 69.3156 61.4158C69.1219 61.4136 68.9308 61.3708 68.7547 61.2902C68.5787 61.2095 68.4216 61.0928 68.2938 60.9477L52.676 43.5186Z" fill="#756FB3"/>
<g opacity="0.6">
<path d="M72.4364 65.5459C72.3073 65.4033 72.2077 65.2366 72.1433 65.0555C72.079 64.8744 72.0512 64.6824 72.0614 64.4905C72.0717 64.2986 72.1199 64.1107 72.2032 63.9374C72.2865 63.7642 72.4033 63.609 72.5469 63.4809L77.6423 58.924C77.7846 58.7934 77.9527 58.6941 78.1359 58.6324C78.319 58.5708 78.5131 58.5481 78.7056 58.566C78.897 58.5701 79.0855 58.6138 79.259 58.6944C79.4325 58.775 79.5874 58.8907 79.7137 59.0341L83.373 63.1642C83.5021 63.3069 83.6017 63.4735 83.6661 63.6546C83.7304 63.8357 83.7583 64.0278 83.748 64.2196C83.7377 64.4115 83.6896 64.5994 83.6063 64.7727C83.5229 64.946 83.4061 65.1011 83.2625 65.2293L78.2361 69.7311C78.0939 69.8616 77.9258 69.961 77.7426 70.0226C77.5594 70.0843 77.3653 70.1069 77.1728 70.089C76.9815 70.0849 76.793 70.0412 76.6195 69.9606C76.4459 69.8801 76.2911 69.7644 76.1648 69.621L72.4364 65.5459ZM52.676 43.5186C52.4161 43.2282 52.2821 42.8471 52.3031 42.4585C52.309 42.2667 52.355 42.0782 52.4382 41.9051C52.5215 41.732 52.6401 41.5782 52.7865 41.4535L57.8819 36.8966C58.023 36.7636 58.1906 36.6618 58.3738 36.5978C58.557 36.5337 58.7517 36.5089 58.9452 36.5249C59.1376 36.5308 59.3267 36.5766 59.5003 36.6596C59.6739 36.7426 59.8282 36.8609 59.9532 37.0068L75.5848 54.4359C75.7158 54.5777 75.8154 54.7453 75.8772 54.9279C75.9391 55.1105 75.9618 55.304 75.9438 55.496C75.9397 55.6868 75.8959 55.8746 75.8151 56.0476C75.7342 56.2207 75.6182 56.375 75.4744 56.5009L70.3651 61.0579C70.2245 61.1866 70.0586 61.2849 69.878 61.3465C69.6973 61.4081 69.5059 61.4317 69.3156 61.4158C69.1219 61.4136 68.9308 61.3708 68.7547 61.2902C68.5787 61.2095 68.4216 61.0928 68.2938 60.9477L52.676 43.5186Z" fill="white"/>
</g>
<path d="M203.896 1.3508C206.262 1.20305 208.601 1.91195 210.483 3.34703C211.289 4.07872 211.919 4.98251 212.326 5.9909C212.732 6.99929 212.905 8.08622 212.831 9.17049C212.901 10.2605 212.727 11.3525 212.321 12.367C211.915 13.3814 211.287 14.293 210.483 15.0353C208.613 16.5006 206.271 17.2349 203.896 17.1003H198.373V24.8787C198.376 25.0041 198.353 25.1287 198.306 25.2448C198.258 25.3609 198.187 25.4659 198.097 25.5533C198.01 25.6409 197.907 25.7104 197.793 25.7577C197.679 25.805 197.557 25.8291 197.434 25.8286H194.603C194.477 25.8305 194.353 25.8072 194.236 25.7601C194.12 25.713 194.014 25.6431 193.925 25.5546C193.836 25.466 193.766 25.3605 193.719 25.2444C193.672 25.1283 193.648 25.004 193.65 24.8787V2.32826C193.65 2.20416 193.675 2.08129 193.723 1.9668C193.771 1.85231 193.842 1.7485 193.93 1.66138C194.019 1.57427 194.124 1.5056 194.24 1.45938C194.355 1.41315 194.479 1.39028 194.603 1.3921L203.896 1.3508ZM198.373 12.7362H203.8C204.917 12.7939 206.027 12.5208 206.99 11.9514C207.411 11.6356 207.743 11.2153 207.951 10.7323C208.159 10.2493 208.237 9.72037 208.177 9.19803C208.244 8.67513 208.17 8.14382 207.961 7.65951C207.752 7.17521 207.417 6.75566 206.99 6.44462C206.018 5.90281 204.912 5.64515 203.8 5.70119H198.373V12.7362Z" fill="#455A64"/>
<path d="M215.993 12.1438C216.117 11.5872 216.336 11.0562 216.642 10.5744C217.004 9.97275 217.472 9.4411 218.023 9.00493C218.709 8.47686 219.479 8.06733 220.301 7.79343C221.312 7.46197 222.372 7.3037 223.436 7.32535C224.527 7.30822 225.613 7.46627 226.653 7.79343C227.562 8.08183 228.403 8.55008 229.125 9.17014C229.826 9.7982 230.37 10.5808 230.713 11.4555C231.104 12.465 231.296 13.54 231.279 14.6219V24.8784C231.28 25.0046 231.254 25.1296 231.205 25.2456C231.155 25.3617 231.081 25.4663 230.989 25.5529C230.903 25.6412 230.8 25.7111 230.686 25.7584C230.572 25.8058 230.45 25.8295 230.327 25.8283H227.675C227.55 25.8301 227.425 25.8068 227.308 25.7598C227.192 25.7127 227.086 25.6428 226.997 25.5542C226.909 25.4656 226.838 25.3601 226.791 25.2441C226.744 25.128 226.721 25.0036 226.722 24.8784V23.7357C226.168 24.4713 225.443 25.0618 224.61 25.4566C223.511 25.9736 222.303 26.2192 221.088 26.1725C220.152 26.1921 219.219 26.0572 218.327 25.7732C217.587 25.5412 216.905 25.1565 216.324 24.6443C215.793 24.1589 215.37 23.568 215.082 22.9097C214.789 22.2221 214.643 21.4813 214.654 20.7345C214.619 20.0154 214.756 19.2984 215.054 18.6426C215.351 17.9868 215.801 17.4108 216.366 16.9623C217.75 15.9534 219.372 15.3179 221.075 15.1175L226.778 14.14C226.813 13.7502 226.745 13.358 226.58 13.0028C226.415 12.6475 226.16 12.3418 225.839 12.1163C225.126 11.7062 224.314 11.5013 223.491 11.5243C223.018 11.5004 222.545 11.5851 222.11 11.7721C221.766 11.9447 221.45 12.1674 221.171 12.4329C221 12.5912 220.804 12.7213 220.591 12.8184C220.406 12.8906 220.21 12.928 220.011 12.9285H216.752C216.533 12.9364 216.32 12.8572 216.159 12.7083C216.079 12.6405 216.021 12.5509 215.991 12.4507C215.962 12.3504 215.963 12.2438 215.993 12.1438ZM221.848 22.001C222.566 22.0121 223.281 21.9003 223.961 21.6706C224.533 21.4736 225.063 21.1699 225.521 20.7758C225.92 20.4299 226.24 20.0027 226.46 19.523C226.663 19.092 226.772 18.6225 226.778 18.1463V17.7333L222.014 18.5593C221.284 18.6463 220.582 18.8906 219.956 19.2752C219.752 19.4191 219.587 19.6116 219.476 19.8351C219.365 20.0587 219.312 20.3063 219.321 20.5555C219.318 20.793 219.39 21.0254 219.526 21.2203C219.662 21.4152 219.856 21.563 220.08 21.6431C220.638 21.8846 221.24 22.0066 221.848 22.001Z" fill="#455A64"/>
<path d="M243.942 29.3118C244.452 29.3099 244.959 29.2358 245.447 29.0915C245.95 28.9439 246.418 28.7008 246.828 28.3757C247.252 28.0345 247.604 27.6135 247.864 27.1366C248.138 26.5901 248.275 25.9854 248.264 25.3744V24.0803C248.039 24.3249 247.795 24.5506 247.532 24.7549C247.192 25.0264 246.821 25.2574 246.428 25.4433C245.946 25.6694 245.441 25.8448 244.922 25.9664C244.284 26.1105 243.63 26.1798 242.975 26.1729C241.884 26.1907 240.802 25.96 239.813 25.4983C238.891 25.065 238.068 24.4463 237.397 23.6811C236.718 22.911 236.185 22.0248 235.822 21.0653C235.434 20.0763 235.215 19.0292 235.173 17.9678C235.173 17.6236 235.173 17.2106 235.173 16.7563C235.173 16.3019 235.173 15.8752 235.173 15.531C235.215 14.4695 235.434 13.4225 235.822 12.4334C236.188 11.4755 236.721 10.5898 237.397 9.81765C238.064 9.05392 238.882 8.43533 239.799 8.0004C240.788 7.53875 241.87 7.30804 242.962 7.32581C243.616 7.31896 244.27 7.38826 244.909 7.53232C245.427 7.65397 245.932 7.82931 246.414 8.05547C246.808 8.24134 247.178 8.47235 247.519 8.74382C247.781 8.94818 248.026 9.17381 248.25 9.41841V8.61992C248.254 8.37142 248.353 8.13386 248.528 7.95685C248.703 7.77984 248.94 7.67707 249.189 7.66999H251.855C252.104 7.68015 252.34 7.7835 252.517 7.95949C252.693 8.13548 252.797 8.37124 252.807 8.61992V24.989C252.888 26.1586 252.718 27.332 252.308 28.431C251.899 29.53 251.259 30.5295 250.432 31.3631C248.621 32.8741 246.3 33.6419 243.942 33.5108C242.819 33.519 241.702 33.3565 240.628 33.0289C239.686 32.7575 238.795 32.3343 237.99 31.7761C237.284 31.3034 236.675 30.7007 236.195 30.0002C235.772 29.394 235.519 28.6856 235.463 27.9489C235.452 27.8259 235.47 27.702 235.515 27.5872C235.561 27.4723 235.633 27.3698 235.726 27.2881C235.907 27.1128 236.15 27.0141 236.402 27.0127H238.791C238.947 27.0095 239.101 27.037 239.246 27.0937C239.39 27.1504 239.522 27.2352 239.634 27.3431C239.868 27.5634 240.062 27.7699 240.227 27.9489C240.556 28.3704 240.983 28.7059 241.47 28.9263C242.256 29.2322 243.1 29.3637 243.942 29.3118ZM239.799 15.7788C239.73 16.4286 239.73 17.0839 239.799 17.7337C239.809 18.9606 240.305 20.1337 241.18 20.9965C241.994 21.6668 243.025 22.0191 244.08 21.9877C245.136 22.0184 246.165 21.6551 246.966 20.969C247.378 20.603 247.712 20.1587 247.949 19.6623C248.186 19.1658 248.322 18.6272 248.347 18.0779C248.398 17.6208 248.421 17.1611 248.416 16.7012C248.42 16.2413 248.397 15.7816 248.347 15.3245C248.29 14.2509 247.815 13.2418 247.023 12.5117C246.232 11.7816 245.186 11.388 244.108 11.4146C243.053 11.3833 242.022 11.7356 241.208 12.4059C240.756 12.8438 240.399 13.3685 240.157 13.9483C239.915 14.5281 239.793 15.1508 239.799 15.7788Z" fill="#455A64"/>
<path d="M256.743 16.7559C256.737 15.5008 256.942 14.2536 257.35 13.0663C257.735 11.9563 258.341 10.9354 259.132 10.0651C259.897 9.20538 260.839 8.51986 261.894 8.05513C263.018 7.57839 264.227 7.33267 265.449 7.33267C266.671 7.33267 267.881 7.57839 269.005 8.05513C270.046 8.50009 270.986 9.15111 271.767 9.96875C272.523 10.7944 273.114 11.7572 273.507 12.8048C273.911 13.893 274.117 15.0447 274.114 16.2052V17.7747C274.119 17.8982 274.097 18.0213 274.049 18.1354C274.001 18.2494 273.929 18.3519 273.838 18.4355C273.754 18.5276 273.652 18.6009 273.538 18.6508C273.424 18.7006 273.3 18.7258 273.175 18.7246H261.479C261.474 19.2037 261.588 19.6767 261.811 20.1013C262.029 20.5081 262.335 20.8609 262.708 21.1338C263.098 21.4233 263.538 21.638 264.006 21.7671C264.496 21.906 265.002 21.9755 265.511 21.9736C266.123 21.9901 266.733 21.9111 267.32 21.7396C267.734 21.613 268.126 21.4226 268.48 21.1751C268.676 21.0227 268.89 20.8934 269.116 20.7897C269.327 20.7104 269.552 20.673 269.778 20.6795H272.54C272.793 20.6809 273.035 20.7796 273.217 20.9549C273.313 21.0366 273.388 21.1411 273.434 21.2589C273.48 21.3767 273.495 21.5041 273.479 21.6295C273.398 22.0826 273.214 22.5111 272.941 22.8823C272.524 23.4653 272.01 23.9729 271.422 24.3829C270.648 24.9171 269.801 25.339 268.908 25.6357C267.8 26.0013 266.637 26.1781 265.47 26.1588C264.249 26.1783 263.036 25.9488 261.907 25.4842C260.851 25.0547 259.906 24.3908 259.146 23.5431C258.355 22.7013 257.745 21.7084 257.35 20.6245C256.928 19.3789 256.723 18.0705 256.743 16.7559ZM265.332 11.5107C264.737 11.4935 264.146 11.5965 263.592 11.8135C263.143 11.9863 262.734 12.2487 262.391 12.5845C262.07 12.8796 261.812 13.2352 261.631 13.6308C261.462 13.9776 261.35 14.3496 261.3 14.7322H269.212C269.161 14.3574 269.073 13.9885 268.95 13.6308C268.819 13.239 268.602 12.8814 268.315 12.5845C267.994 12.2464 267.603 11.9831 267.168 11.8135C266.583 11.591 265.958 11.488 265.332 11.5107Z" fill="#455A64"/>
<path d="M302.823 24.8785C302.825 25.0026 302.802 25.1258 302.755 25.241C302.709 25.3562 302.64 25.461 302.553 25.5494C302.465 25.6378 302.361 25.708 302.246 25.7559C302.132 25.8038 302.008 25.8285 301.884 25.8285H299.177C299.054 25.8297 298.932 25.806 298.818 25.7586C298.704 25.7113 298.601 25.6414 298.515 25.5531C298.422 25.4665 298.349 25.3619 298.299 25.2458C298.249 25.1298 298.224 25.0048 298.225 24.8785V16.0126C298.289 14.8187 297.943 13.6388 297.244 12.6672C296.879 12.2344 296.415 11.895 295.891 11.6771C295.368 11.4592 294.799 11.3691 294.234 11.4144C293.684 11.3877 293.136 11.4867 292.631 11.7039C292.126 11.921 291.678 12.2505 291.32 12.6672C290.566 13.615 290.183 14.804 290.243 16.0126V24.8785C290.246 25.0039 290.223 25.1285 290.176 25.2446C290.128 25.3607 290.057 25.4658 289.967 25.5531C289.88 25.6407 289.777 25.7102 289.663 25.7575C289.55 25.8048 289.427 25.8289 289.304 25.8285H286.749C286.626 25.8289 286.504 25.8048 286.39 25.7575C286.276 25.7102 286.173 25.6407 286.087 25.5531C285.996 25.4658 285.925 25.3607 285.878 25.2446C285.83 25.1285 285.807 25.0039 285.81 24.8785V8.61964C285.806 8.49612 285.828 8.37307 285.876 8.25897C285.923 8.14488 285.995 8.04246 286.087 7.95882C286.17 7.86674 286.273 7.79338 286.387 7.74355C286.501 7.69372 286.625 7.66856 286.749 7.66971H289.414C289.539 7.66856 289.663 7.69372 289.777 7.74355C289.891 7.79338 289.994 7.86674 290.077 7.95882C290.169 8.04246 290.241 8.14488 290.288 8.25897C290.336 8.37307 290.358 8.49612 290.354 8.61964V9.41813C290.979 8.80375 291.702 8.29671 292.494 7.91752C293.402 7.50061 294.394 7.29803 295.394 7.32554C296.62 7.28527 297.84 7.51073 298.97 7.98636C299.871 8.38497 300.662 8.99416 301.276 9.76231C301.875 10.5296 302.299 11.4174 302.519 12.3643C302.771 13.3869 302.896 14.4364 302.892 15.4894L302.823 24.8785Z" fill="#455A64"/>
<path d="M315.499 7.32563C316.686 7.30643 317.866 7.50716 318.979 7.91761C319.975 8.30896 320.889 8.88337 321.672 9.61096C322.428 10.3066 323.047 11.1379 323.495 12.0615C323.954 13 324.222 14.0202 324.282 15.0627C324.299 15.3286 324.299 15.5953 324.282 15.8612V17.8024C324.299 18.0637 324.299 18.3258 324.282 18.5871C324.195 19.6269 323.924 20.6431 323.481 21.5883C323.046 22.5079 322.431 23.3317 321.672 24.0113C320.884 24.7151 319.97 25.266 318.979 25.6358C316.744 26.4122 314.31 26.4122 312.075 25.6358C311.058 25.2756 310.121 24.7241 309.313 24.0113C308.558 23.3312 307.948 22.5073 307.518 21.5883C307.07 20.6439 306.794 19.6277 306.703 18.5871C306.703 18.376 306.703 18.1144 306.703 17.8024C306.703 17.4857 306.703 17.1691 306.703 16.8387C306.703 16.5083 306.703 16.1916 306.703 15.8612C306.703 15.5308 306.703 15.2692 306.703 15.0627C306.777 14.0223 307.044 13.0046 307.49 12.0615C307.938 11.1379 308.557 10.3066 309.313 9.61096C310.12 8.89406 311.058 8.33795 312.075 7.97268C313.167 7.55011 314.328 7.3308 315.499 7.32563ZM319.739 15.1729C319.691 14.5481 319.517 13.9393 319.228 13.3831C318.983 12.939 318.644 12.5536 318.234 12.2542C317.848 11.9705 317.405 11.7733 316.935 11.676C316.483 11.5702 316.02 11.5148 315.555 11.5108C315.09 11.514 314.626 11.5694 314.174 11.676C313.704 11.7733 313.262 11.9705 312.876 12.2542C312.459 12.546 312.118 12.9331 311.881 13.3831C311.586 13.9368 311.412 14.5469 311.371 15.1729C311.371 15.3656 311.371 15.5996 311.371 15.875C311.371 16.1503 311.371 16.4532 311.371 16.7561C311.371 17.0589 311.371 17.3481 311.371 17.6372C311.359 17.8665 311.359 18.0962 311.371 18.3255C311.41 18.9518 311.584 19.5622 311.881 20.1152C312.121 20.5665 312.461 20.9573 312.876 21.2579C313.268 21.5307 313.708 21.7269 314.174 21.8361C314.628 21.9318 315.09 21.9826 315.555 21.9876C316.019 21.982 316.481 21.9312 316.935 21.8361C317.401 21.7269 317.841 21.5307 318.234 21.2579C318.641 20.9499 318.979 20.5607 319.228 20.1152C319.519 19.5598 319.693 18.9506 319.739 18.3255C319.739 18.1603 319.739 17.9263 319.739 17.6372V15.875C319.766 15.5996 319.752 15.3656 319.739 15.1178V15.1729Z" fill="#455A64"/>
<path d="M334.224 19.2475C334.193 19.8777 334.4 20.4967 334.804 20.9821C335.1 21.2304 335.444 21.4158 335.814 21.527C336.185 21.6383 336.574 21.673 336.958 21.6292H339.099C339.222 21.6271 339.345 21.6505 339.459 21.6979C339.573 21.7453 339.676 21.8156 339.762 21.9045C339.85 21.9903 339.92 22.0931 339.968 22.2067C340.015 22.3203 340.039 22.4423 340.038 22.5654V24.8645C340.039 24.9885 340.017 25.1118 339.97 25.2269C339.924 25.3421 339.855 25.4469 339.768 25.5353C339.68 25.6237 339.576 25.6939 339.461 25.7418C339.346 25.7897 339.223 25.8144 339.099 25.8144H336.461C334.635 25.9346 332.83 25.3644 331.407 24.2174C330.777 23.5836 330.292 22.8207 329.987 21.9815C329.682 21.1423 329.563 20.247 329.64 19.3576V11.8683H327.32C327.071 11.8613 326.834 11.7585 326.659 11.5815C326.484 11.4045 326.384 11.1669 326.381 10.9184V8.61931C326.384 8.37081 326.484 8.13326 326.659 7.95625C326.834 7.77924 327.071 7.67646 327.32 7.66939H329.64V1.98359C329.64 1.7353 329.739 1.49719 329.915 1.32162C330.091 1.14606 330.33 1.04743 330.579 1.04743H333.244C333.367 1.04537 333.49 1.06876 333.604 1.11614C333.718 1.16352 333.821 1.23386 333.907 1.32277C333.995 1.40853 334.065 1.51133 334.113 1.62492C334.16 1.73852 334.184 1.86054 334.183 1.98359V7.66939H338.698C338.948 7.67955 339.184 7.78289 339.361 7.95888C339.537 8.13487 339.641 8.37063 339.651 8.61931V10.9873C339.641 11.2359 339.537 11.4717 339.361 11.6477C339.184 11.8237 338.948 11.927 338.698 11.9372H334.183L334.224 19.2475Z" fill="#455A64"/>
<path d="M357.174 7.6697H362.035C362.162 7.66916 362.287 7.69454 362.403 7.74427C362.52 7.794 362.625 7.86702 362.712 7.9588C362.8 8.04457 362.87 8.14736 362.918 8.26096C362.965 8.37455 362.989 8.49657 362.988 8.61962V10.9876C362.989 11.1106 362.965 11.2326 362.918 11.3462C362.87 11.4598 362.8 11.5626 362.712 11.6484C362.625 11.7402 362.52 11.8132 362.403 11.8629C362.287 11.9126 362.162 11.938 362.035 11.9375H357.174V24.9474C357.176 25.0715 357.153 25.1947 357.107 25.3098C357.061 25.425 356.992 25.5299 356.904 25.6182C356.817 25.7066 356.713 25.7768 356.598 25.8247C356.483 25.8726 356.36 25.8973 356.235 25.8973H353.57C353.447 25.8985 353.324 25.8748 353.211 25.8274C353.097 25.7801 352.994 25.7102 352.907 25.6219C352.815 25.5353 352.742 25.4307 352.692 25.3146C352.642 25.1986 352.617 25.0736 352.618 24.9474V11.8687H350.27C350.145 11.8707 350.021 11.8459 349.907 11.7961C349.793 11.7462 349.69 11.6723 349.607 11.5795C349.516 11.4959 349.444 11.3935 349.396 11.2794C349.349 11.1653 349.326 11.0422 349.331 10.9187V8.61962C349.326 8.49611 349.349 8.37305 349.396 8.25896C349.444 8.14486 349.516 8.04245 349.607 7.9588C349.69 7.86602 349.793 7.79218 349.907 7.7423C350.021 7.69241 350.145 7.66765 350.27 7.6697H352.576V6.10025C352.549 5.13122 352.718 4.16667 353.073 3.26424C353.363 2.51965 353.838 1.86101 354.454 1.35061C355.103 0.850971 355.852 0.494358 356.65 0.30432C357.582 0.0905036 358.537 -0.0111807 359.494 0.00144261H362.339C362.462 -0.000617648 362.585 0.0227721 362.699 0.0701508C362.813 0.11753 362.916 0.187878 363.002 0.276785C363.09 0.362547 363.16 0.465339 363.208 0.578932C363.255 0.692525 363.279 0.814551 363.278 0.937603V3.2367C363.28 3.36079 363.257 3.48401 363.21 3.59918C363.164 3.71436 363.095 3.81919 363.008 3.90759C362.92 3.99598 362.816 4.06617 362.701 4.11407C362.587 4.16198 362.463 4.18665 362.339 4.18663H359.936C359.228 4.13751 358.521 4.30051 357.906 4.65471C357.647 4.87276 357.447 5.15205 357.324 5.46708C357.201 5.78212 357.159 6.12286 357.202 6.45819L357.174 7.6697Z" fill="#455A64"/>
<path d="M373.745 7.32563C374.932 7.30643 376.112 7.50716 377.225 7.91761C378.201 8.31501 379.095 8.88913 379.862 9.61096C380.619 10.3066 381.237 11.1379 381.685 12.0615C382.144 13 382.412 14.0202 382.472 15.0627C382.489 15.3286 382.489 15.5953 382.472 15.8612V17.8024C382.489 18.0637 382.489 18.3258 382.472 18.5871C382.386 19.6269 382.114 20.6431 381.671 21.5883C381.236 22.5079 380.621 23.3317 379.862 24.0113C379.074 24.7151 378.161 25.266 377.17 25.6358C376.068 26.0068 374.907 26.1748 373.745 26.1314C372.554 26.1504 371.369 25.9497 370.251 25.5395C369.26 25.1697 368.347 24.6187 367.559 23.9149C366.804 23.2348 366.194 22.4109 365.764 21.4919C365.31 20.5498 365.033 19.5325 364.949 18.4907C364.949 18.2842 364.949 18.0226 364.949 17.706C364.949 17.3894 364.949 17.0727 364.949 16.7423C364.949 16.4119 364.949 16.0953 364.949 15.7648C364.949 15.4344 364.949 15.1729 364.949 14.9663C365.009 13.9238 365.277 12.9036 365.736 11.9651C366.178 11.0804 366.776 10.2828 367.503 9.61096C368.291 8.90304 369.204 8.34749 370.196 7.97268C371.328 7.53687 372.532 7.31736 373.745 7.32563ZM377.888 15.1178C377.844 14.494 377.675 13.8853 377.391 13.3281C377.145 12.88 376.8 12.4939 376.382 12.1992C376.002 11.9158 375.563 11.7184 375.098 11.621C374.646 11.5151 374.182 11.4597 373.717 11.4557C373.252 11.4582 372.789 11.5136 372.337 11.621C371.867 11.7182 371.424 11.9155 371.038 12.1992C370.621 12.4909 370.28 12.878 370.044 13.3281C369.748 13.8817 369.574 14.4918 369.533 15.1178C369.533 15.3105 369.533 15.5446 369.533 15.8199C369.533 16.0952 369.533 16.3981 369.533 16.701C369.533 17.0039 369.533 17.293 369.533 17.5821C369.521 17.8114 369.521 18.0412 369.533 18.2704C369.573 18.8967 369.747 19.5071 370.044 20.0602C370.284 20.5115 370.624 20.9023 371.038 21.2028C371.431 21.4756 371.871 21.6718 372.337 21.781C372.791 21.8777 373.253 21.9284 373.717 21.9325C374.182 21.9269 374.644 21.8762 375.098 21.781C375.559 21.6714 375.995 21.4752 376.382 21.2028C376.798 20.8993 377.142 20.5094 377.391 20.0602C377.677 19.5037 377.846 18.8946 377.888 18.2704C377.905 18.0413 377.905 17.8112 377.888 17.5821V15.875C377.907 15.6229 377.907 15.3698 377.888 15.1178Z" fill="#455A64"/>
<path d="M386.325 8.61961C386.328 8.37111 386.428 8.13356 386.603 7.95655C386.778 7.77954 387.015 7.67676 387.264 7.66969H389.929C390.178 7.67985 390.415 7.78319 390.591 7.95918C390.768 8.13517 390.872 8.37093 390.882 8.61961V17.4856C390.822 18.6651 391.13 19.8341 391.766 20.831C392.109 21.2688 392.557 21.614 393.068 21.8352C393.579 22.0564 394.138 22.1466 394.693 22.0976C395.232 22.1281 395.771 22.0289 396.263 21.8085C396.756 21.5881 397.188 21.2528 397.524 20.831C398.223 19.8594 398.568 18.6794 398.504 17.4856V8.61961C398.514 8.37093 398.618 8.13517 398.795 7.95918C398.971 7.78319 399.208 7.67985 399.457 7.66969H402.108C402.235 7.66915 402.36 7.69453 402.477 7.74426C402.593 7.79398 402.698 7.86701 402.785 7.95879C402.874 8.04456 402.944 8.14735 402.991 8.26095C403.039 8.37454 403.062 8.49656 403.061 8.61961V24.8785C403.063 25.0038 403.04 25.1281 402.992 25.2442C402.945 25.3603 402.875 25.4658 402.786 25.5544C402.697 25.6429 402.592 25.7128 402.475 25.7599C402.359 25.807 402.234 25.8303 402.108 25.8284H399.457C399.334 25.8297 399.211 25.8059 399.097 25.7586C398.983 25.7113 398.88 25.6414 398.794 25.5531C398.702 25.4664 398.629 25.3618 398.579 25.2458C398.529 25.1298 398.504 25.0048 398.504 24.8785V24.08C397.91 24.6302 397.24 25.0937 396.516 25.4567C395.629 25.9134 394.641 26.1362 393.644 26.1038C392.431 26.1442 391.224 25.9186 390.108 25.443C389.226 25.0469 388.456 24.4363 387.871 23.667C387.292 22.8933 386.883 22.0068 386.67 21.065C386.434 20.0402 386.318 18.9914 386.325 17.9399V8.61961Z" fill="#455A64"/>
<path d="M424.976 24.8785C424.978 25.0026 424.955 25.1258 424.908 25.241C424.862 25.3562 424.793 25.461 424.706 25.5494C424.618 25.6378 424.514 25.708 424.399 25.7559C424.284 25.8038 424.161 25.8285 424.037 25.8285H421.372C421.248 25.8297 421.126 25.806 421.012 25.7586C420.898 25.7113 420.795 25.6414 420.709 25.5531C420.617 25.4665 420.543 25.3619 420.494 25.2458C420.444 25.1298 420.418 25.0048 420.419 24.8785V16.0126C420.483 14.8187 420.137 13.6388 419.438 12.6672C419.073 12.2344 418.609 11.895 418.085 11.6771C417.562 11.4592 416.994 11.3691 416.428 11.4144C415.879 11.3877 415.331 11.4867 414.825 11.7039C414.32 11.921 413.872 12.2505 413.514 12.6672C412.76 13.615 412.377 14.804 412.437 16.0126V24.8785C412.44 25.0039 412.418 25.1285 412.37 25.2446C412.322 25.3607 412.251 25.4658 412.161 25.5531C412.075 25.6407 411.971 25.7102 411.858 25.7575C411.744 25.8048 411.622 25.8289 411.498 25.8285H408.833C408.71 25.8289 408.588 25.8048 408.474 25.7575C408.36 25.7102 408.257 25.6407 408.17 25.5531C408.08 25.4658 408.009 25.3607 407.962 25.2446C407.914 25.1285 407.891 25.0039 407.894 24.8785V8.61964C407.89 8.49612 407.912 8.37307 407.959 8.25897C408.007 8.14488 408.079 8.04246 408.17 7.95882C408.254 7.86674 408.357 7.79338 408.471 7.74355C408.585 7.69372 408.709 7.66856 408.833 7.66971H411.498C411.623 7.66856 411.747 7.69372 411.861 7.74355C411.975 7.79338 412.077 7.86674 412.161 7.95882C412.252 8.04246 412.324 8.14488 412.372 8.25897C412.42 8.37307 412.442 8.49612 412.437 8.61964V9.41813C413.063 8.80375 413.786 8.29671 414.578 7.91752C415.486 7.50061 416.478 7.29803 417.478 7.32554C418.704 7.28527 419.924 7.51073 421.054 7.98636C421.955 8.38497 422.746 8.99416 423.36 9.76231C423.959 10.5296 424.383 11.4174 424.603 12.3643C424.855 13.3869 424.98 14.4364 424.976 15.4894V24.8785Z" fill="#455A64"/>
<path d="M436.63 7.32521C437.285 7.31708 437.939 7.3864 438.577 7.53172C439.096 7.65337 439.601 7.8287 440.083 8.05486C440.476 8.24074 440.847 8.47175 441.187 8.74322C441.453 8.94396 441.698 9.16988 441.919 9.4178V1.98359C441.919 1.85948 441.944 1.73662 441.992 1.62213C442.04 1.50764 442.11 1.40382 442.199 1.31671C442.288 1.2296 442.393 1.16093 442.508 1.1147C442.624 1.06847 442.748 1.0456 442.872 1.04743H445.551C445.675 1.04274 445.798 1.06494 445.913 1.11248C446.027 1.16002 446.13 1.23177 446.214 1.32277C446.307 1.40573 446.381 1.50768 446.431 1.6217C446.481 1.73573 446.506 1.85915 446.504 1.98359V24.8782C446.504 25.0045 446.479 25.1295 446.429 25.2455C446.379 25.3615 446.306 25.4661 446.214 25.5528C446.128 25.6411 446.025 25.711 445.911 25.7583C445.797 25.8056 445.674 25.8294 445.551 25.8281H442.9C442.774 25.83 442.649 25.8067 442.533 25.7596C442.416 25.7125 442.311 25.6426 442.222 25.5541C442.133 25.4655 442.063 25.36 442.016 25.2439C441.968 25.1278 441.945 25.0035 441.947 24.8782V24.0797C441.725 24.3277 441.48 24.5536 441.215 24.7543C440.875 25.0258 440.504 25.2568 440.11 25.4427C439.628 25.6688 439.124 25.8442 438.605 25.9658C437.967 26.1111 437.313 26.1805 436.658 26.1723C435.566 26.1901 434.485 25.9594 433.496 25.4977C432.573 25.0644 431.751 24.4457 431.079 23.6805C430.405 22.9069 429.872 22.0216 429.505 21.0647C429.117 20.0756 428.897 19.0286 428.856 17.9671C428.856 17.623 428.856 17.21 428.856 16.7556C428.856 16.3013 428.856 15.8746 428.856 15.5304C428.897 14.4689 429.117 13.4219 429.505 12.4328C429.876 11.4774 430.408 10.5926 431.079 9.81705C431.751 9.0518 432.573 8.43312 433.496 7.9998C434.476 7.54223 435.548 7.31161 436.63 7.32521ZM433.372 15.7782C433.302 16.428 433.302 17.0833 433.372 17.7331C433.387 18.9587 433.883 20.1297 434.752 20.9959C435.568 21.664 436.597 22.016 437.652 21.9871C438.712 22.016 439.745 21.6531 440.552 20.9684C440.964 20.6024 441.298 20.1581 441.535 19.6617C441.772 19.1652 441.907 18.6266 441.933 18.0773C441.984 17.6202 442.007 17.1604 442.002 16.7006C442.006 16.2407 441.983 15.781 441.933 15.3239C441.876 14.2503 441.401 13.2412 440.609 12.5111C439.818 11.781 438.772 11.3874 437.694 11.414C436.639 11.3852 435.609 11.7372 434.794 12.4053C434.342 12.8439 433.984 13.3685 433.74 13.9479C433.495 14.5273 433.37 15.1497 433.372 15.7782Z" fill="#455A64"/>
<path d="M245.931 60.2187C246.045 60.2175 246.157 60.2402 246.262 60.2853C246.367 60.3303 246.461 60.3968 246.538 60.4803C246.619 60.5591 246.682 60.6534 246.725 60.7576C246.768 60.8618 246.789 60.9735 246.787 61.0861V64.4728C246.789 64.5853 246.768 64.6971 246.725 64.8012C246.682 64.9054 246.619 64.9998 246.538 65.0785C246.461 65.1621 246.367 65.2285 246.262 65.2736C246.157 65.3186 246.045 65.3413 245.931 65.3401H230.741C230.627 65.3422 230.513 65.3199 230.409 65.2748C230.304 65.2297 230.21 65.1628 230.133 65.0785C230.051 65.0004 229.985 64.9065 229.94 64.8024C229.895 64.6983 229.871 64.5862 229.871 64.4728V43.8222C229.871 43.7088 229.895 43.5966 229.94 43.4925C229.985 43.3884 230.051 43.2945 230.133 43.2164C230.21 43.1322 230.304 43.0652 230.409 43.0201C230.513 42.975 230.627 42.9528 230.741 42.9548H245.696C245.924 42.9618 246.142 43.0553 246.303 43.2165C246.465 43.3777 246.559 43.5943 246.566 43.8222V47.1951C246.567 47.3108 246.545 47.4256 246.499 47.5322C246.454 47.6388 246.388 47.7349 246.303 47.8146C246.224 47.895 246.13 47.9585 246.025 48.0011C245.921 48.0437 245.809 48.0646 245.696 48.0624H235.809V51.518H244.992C245.106 51.5159 245.219 51.5381 245.324 51.5833C245.428 51.6284 245.522 51.6953 245.599 51.7795C245.682 51.8576 245.747 51.9515 245.792 52.0556C245.838 52.1597 245.861 52.2719 245.861 52.3853V55.772C245.861 55.8854 245.838 55.9975 245.792 56.1016C245.747 56.2057 245.682 56.2997 245.599 56.3777C245.522 56.462 245.428 56.5289 245.324 56.574C245.219 56.6191 245.106 56.6414 244.992 56.6393H235.809V60.2187H245.931Z" fill="#756FB3"/>
<path d="M260.043 42.9404C261.319 42.9234 262.591 43.0762 263.827 43.3947C264.855 43.6673 265.821 44.1347 266.671 44.7714C267.453 45.3767 268.07 46.167 268.467 47.0705C268.9 48.0933 269.111 49.1958 269.088 50.3058C269.142 51.7036 268.797 53.088 268.094 54.2982C267.43 55.3542 266.47 56.1921 265.332 56.7075L269.309 64.3206C269.37 64.4303 269.403 64.5532 269.406 64.6786C269.406 64.8648 269.331 65.0434 269.199 65.1751C269.067 65.3067 268.888 65.3807 268.701 65.3807H264.338C264.174 65.3973 264.009 65.3802 263.852 65.3305C263.695 65.2807 263.55 65.1994 263.426 65.0916C263.254 64.9192 263.105 64.7247 262.984 64.5134L259.422 57.6298H256.37V64.5134C256.372 64.6259 256.351 64.7377 256.308 64.8419C256.266 64.946 256.202 65.0404 256.121 65.1191C256.044 65.2027 255.95 65.2691 255.845 65.3142C255.741 65.3593 255.628 65.3819 255.514 65.3807H251.371C251.257 65.3819 251.144 65.3593 251.04 65.3142C250.935 65.2691 250.841 65.2027 250.764 65.1191C250.683 65.0404 250.619 64.946 250.577 64.8419C250.534 64.7377 250.513 64.6259 250.515 64.5134V43.8628C250.513 43.7503 250.534 43.6385 250.577 43.5343C250.619 43.4302 250.683 43.3358 250.764 43.257C250.841 43.1735 250.935 43.107 251.04 43.062C251.144 43.0169 251.257 42.9943 251.371 42.9955L260.043 42.9404ZM256.411 52.5773H260.043C260.821 52.6082 261.593 52.4324 262.28 52.068C262.582 51.8678 262.824 51.5884 262.977 51.2605C263.131 50.9327 263.19 50.569 263.15 50.2094C263.191 49.8517 263.131 49.4898 262.978 49.164C262.824 48.8382 262.582 48.5615 262.28 48.3646C261.593 48.0002 260.821 47.8244 260.043 47.8552H256.37L256.411 52.5773Z" fill="#756FB3"/>
<path d="M282.344 42.9404C283.62 42.9234 284.893 43.0762 286.128 43.3947C287.156 43.6673 288.122 44.1347 288.973 44.7714C289.758 45.3729 290.376 46.1643 290.768 47.0705C291.201 48.0933 291.413 49.1958 291.389 50.3058C291.443 51.7036 291.099 53.088 290.395 54.2982C289.732 55.3542 288.771 56.1921 287.633 56.7075L291.61 64.3206C291.671 64.4303 291.704 64.5532 291.707 64.6786C291.707 64.8648 291.633 65.0434 291.501 65.1751C291.368 65.3067 291.189 65.3807 291.003 65.3807H286.639C286.475 65.3973 286.31 65.3802 286.153 65.3305C285.996 65.2807 285.852 65.1994 285.728 65.0916C285.555 64.9192 285.407 64.7247 285.286 64.5134L281.723 57.6298H278.782V64.5134C278.781 64.6268 278.758 64.7389 278.713 64.843C278.668 64.9471 278.602 65.0411 278.519 65.1191C278.442 65.2027 278.348 65.2691 278.243 65.3142C278.139 65.3593 278.026 65.3819 277.912 65.3807H273.7C273.586 65.3819 273.473 65.3593 273.368 65.3142C273.264 65.2691 273.17 65.2027 273.092 65.1191C273.012 65.0404 272.948 64.946 272.905 64.8419C272.863 64.7377 272.842 64.6259 272.844 64.5134V43.8628C272.842 43.7503 272.863 43.6385 272.905 43.5343C272.948 43.4302 273.012 43.3358 273.092 43.257C273.17 43.1735 273.264 43.107 273.368 43.062C273.473 43.0169 273.586 42.9943 273.7 42.9955L282.344 42.9404ZM278.726 52.5773H282.344C283.122 52.6082 283.894 52.4324 284.581 52.068C284.884 51.8678 285.125 51.5884 285.278 51.2605C285.432 50.9327 285.492 50.569 285.451 50.2094C285.492 49.8517 285.432 49.4898 285.279 49.164C285.125 48.8382 284.884 48.5615 284.581 48.3646C283.894 48.0002 283.122 47.8244 282.344 47.8552H278.726V52.5773Z" fill="#756FB3"/>
<path d="M294.344 51.2973C294.404 50.1355 294.671 48.9934 295.131 47.9244C295.581 46.8777 296.249 45.939 297.092 45.171C297.985 44.3541 299.032 43.7224 300.172 43.3125C302.88 42.3946 305.817 42.3946 308.526 43.3125C309.664 43.7256 310.71 44.357 311.605 45.171C312.444 45.9395 313.108 46.8784 313.552 47.9244C314.026 48.9892 314.293 50.1336 314.339 51.2973C314.339 52.206 314.408 53.1697 314.408 54.1747C314.408 55.1797 314.408 56.1158 314.339 56.9281C314.291 58.096 314.024 59.2447 313.552 60.3148C313.097 61.3543 312.434 62.2909 311.605 63.0682C310.705 63.8857 309.648 64.5132 308.498 64.913C305.787 65.8127 302.856 65.8127 300.144 64.913C299.002 64.513 297.955 63.8853 297.065 63.0682C296.232 62.2915 295.565 61.3549 295.104 60.3148C294.645 59.2405 294.378 58.0942 294.317 56.9281C294.317 56.0608 294.317 55.1246 294.317 54.1747C294.317 53.2247 294.303 52.206 294.344 51.2973ZM308.429 56.8042C308.429 56.4187 308.429 55.9919 308.498 55.5238C308.567 55.0558 308.498 54.5739 308.498 54.0783C308.498 53.5827 308.498 53.1146 308.498 52.7016C308.498 52.2886 308.498 51.8343 308.429 51.4626C308.394 50.9621 308.282 50.47 308.098 50.0032C307.924 49.5639 307.661 49.1654 307.325 48.833C306.973 48.491 306.554 48.2239 306.096 48.0483C305.539 47.8454 304.949 47.7474 304.356 47.7592C303.767 47.7459 303.181 47.844 302.63 48.0483C302.165 48.2205 301.742 48.4878 301.387 48.833C301.055 49.169 300.792 49.5665 300.613 50.0032C300.429 50.47 300.317 50.9621 300.282 51.4626C300.282 51.8297 300.254 52.2427 300.199 52.7016C300.199 53.1559 300.199 53.6378 300.199 54.0783C300.199 54.5188 300.199 55.0558 300.199 55.5238C300.199 55.9919 300.199 56.4187 300.282 56.8042C300.334 57.7899 300.724 58.7278 301.387 59.4612C301.78 59.8342 302.247 60.1203 302.759 60.3006C303.271 60.4809 303.815 60.5514 304.356 60.5075C304.895 60.553 305.437 60.4831 305.947 60.3027C306.456 60.1222 306.921 59.8353 307.311 59.4612C307.961 58.7295 308.354 57.8063 308.429 56.8317V56.8042Z" fill="#756FB3"/>
<path d="M327.693 42.9403C328.968 42.9243 330.241 43.077 331.476 43.3946C332.501 43.6659 333.462 44.1335 334.307 44.7713C335.092 45.3757 335.714 46.166 336.116 47.0704C336.549 48.0932 336.761 49.1956 336.737 50.3056C336.791 51.7034 336.447 53.0878 335.743 54.2981C335.063 55.3661 334.077 56.2055 332.912 56.7073L336.889 64.3205C336.954 64.4296 336.991 64.5522 337 64.6785C336.998 64.7717 336.978 64.8637 336.94 64.9489C336.902 65.0341 336.847 65.1107 336.779 65.1741C336.715 65.2406 336.637 65.2932 336.552 65.3288C336.466 65.3643 336.374 65.3819 336.282 65.3806H331.918C331.754 65.3972 331.589 65.3801 331.432 65.3303C331.276 65.2806 331.131 65.1993 331.007 65.0915C330.838 64.9194 330.694 64.7248 330.579 64.5132L327.016 57.6297H324.033V64.5132C324.026 64.7411 323.932 64.9577 323.771 65.1189C323.609 65.2801 323.392 65.3737 323.163 65.3806H319.021C318.792 65.3737 318.575 65.2801 318.413 65.1189C318.251 64.9577 318.158 64.7411 318.151 64.5132V43.8626C318.158 43.6348 318.251 43.4182 318.413 43.257C318.575 43.0958 318.792 43.0022 319.021 42.9953L327.693 42.9403ZM324.061 52.5772H327.693C328.466 52.6083 329.234 52.4324 329.916 52.0678C330.223 51.8717 330.469 51.5934 330.625 51.2648C330.781 50.9362 330.842 50.5705 330.8 50.2093C330.841 49.8501 330.78 49.4866 330.623 49.1604C330.467 48.8342 330.222 48.5584 329.916 48.3645C329.234 47.9999 328.466 47.824 327.693 47.8551H324.033L324.061 52.5772Z" fill="#756FB3"/>
<path d="M357.823 65.3398C357.707 65.3413 357.592 65.3188 357.485 65.2738C357.378 65.2288 357.282 65.1622 357.202 65.0783C357.121 64.9995 357.058 64.9051 357.015 64.801C356.972 64.6968 356.951 64.585 356.953 64.4725V61.2097H346.845C346.733 61.2119 346.62 61.191 346.516 61.1484C346.411 61.1058 346.317 61.0423 346.238 60.9619C346.154 60.8823 346.087 60.7861 346.042 60.6795C345.997 60.5729 345.974 60.4581 345.975 60.3424V56.9557C345.958 56.4639 346.104 55.9802 346.39 55.579L355.987 43.519C356.131 43.3319 356.309 43.1731 356.512 43.051C356.723 42.9717 356.948 42.9343 357.174 42.9408H362.021C362.135 42.9388 362.249 42.961 362.353 43.0061C362.458 43.0512 362.552 43.1182 362.629 43.2024C362.711 43.2805 362.777 43.3744 362.822 43.4785C362.867 43.5826 362.891 43.6948 362.891 43.8082V56.0884H365.653C365.882 56.0924 366.101 56.1864 366.261 56.3499C366.341 56.4287 366.405 56.5231 366.448 56.6272C366.49 56.7314 366.511 56.8432 366.509 56.9557V60.3424C366.511 60.5734 366.422 60.7959 366.261 60.9619C366.181 61.041 366.086 61.1037 365.982 61.1462C365.877 61.1887 365.766 61.2103 365.653 61.2097H362.891V64.4725C362.891 64.5859 362.867 64.698 362.822 64.8022C362.777 64.9063 362.711 65.0002 362.629 65.0783C362.552 65.1625 362.458 65.2294 362.353 65.2745C362.249 65.3197 362.135 65.3419 362.021 65.3398H357.823ZM357.174 56.0884V50.2098L352.493 56.0884H357.174Z" fill="#756FB3"/>
<path d="M378.578 42.6513C379.991 42.619 381.398 42.8573 382.721 43.3535C383.8 43.7749 384.778 44.4175 385.593 45.2395C386.347 46.0279 386.926 46.9662 387.291 47.993C387.667 49.0627 387.89 50.1795 387.954 51.3108C387.954 52.2195 387.954 53.1831 387.954 54.1881C387.954 55.1931 387.954 56.1293 387.954 56.9416C387.89 58.0729 387.667 59.1897 387.291 60.2594C386.932 61.2892 386.353 62.2287 385.593 63.0128C384.778 63.8349 383.8 64.4774 382.721 64.8989C380.039 65.8349 377.117 65.8349 374.435 64.8989C373.356 64.4774 372.378 63.8349 371.563 63.0128C370.803 62.2287 370.224 61.2892 369.865 60.2594C369.49 59.1897 369.266 58.0729 369.202 56.9416C369.202 56.0742 369.202 55.1381 369.202 54.1881C369.202 53.2382 369.202 52.2195 369.202 51.3108C369.266 50.1795 369.49 49.0627 369.865 47.993C370.23 46.9662 370.809 46.0279 371.563 45.2395C372.378 44.4175 373.356 43.7749 374.435 43.3535C375.759 42.8573 377.165 42.619 378.578 42.6513ZM382.03 56.8314C382.113 55.0142 382.113 53.2244 382.03 51.4485C381.995 50.9552 381.912 50.4665 381.782 49.9892C381.68 49.5655 381.492 49.1672 381.229 48.819C380.952 48.4789 380.597 48.2099 380.194 48.0343C379.686 47.8257 379.14 47.7271 378.592 47.7452C378.044 47.7284 377.498 47.8269 376.99 48.0343C376.587 48.2099 376.232 48.4789 375.954 48.819C375.693 49.1695 375.5 49.5667 375.388 49.9892C375.25 50.4641 375.171 50.9543 375.154 51.4485C375.057 53.2415 375.057 55.0384 375.154 56.8314C375.176 57.3278 375.245 57.821 375.361 58.3045C375.475 58.7289 375.672 59.1266 375.941 59.4747C376.224 59.8115 376.584 60.0758 376.99 60.2456C377.498 60.453 378.044 60.5516 378.592 60.5348C379.14 60.5528 379.686 60.4543 380.194 60.2456C380.6 60.0758 380.96 59.8115 381.243 59.4747C381.512 59.1266 381.709 58.7289 381.823 58.3045C381.938 57.821 382.008 57.3278 382.03 56.8314Z" fill="#756FB3"/>
<path d="M402.454 65.3392C402.225 65.3323 402.008 65.2387 401.846 65.0775C401.684 64.9163 401.591 64.6997 401.584 64.4719V61.2091H391.476C391.363 61.2112 391.251 61.1904 391.146 61.1477C391.042 61.1051 390.947 61.0417 390.868 60.9613C390.703 60.7966 390.609 60.5744 390.606 60.3418V56.9551C390.586 56.4608 390.737 55.9749 391.034 55.5784L400.617 43.5184C400.762 43.3272 400.946 43.1679 401.156 43.0503C401.362 42.9696 401.583 42.9321 401.805 42.9402H406.651C406.88 42.9471 407.097 43.0407 407.259 43.2019C407.421 43.3631 407.514 43.5797 407.521 43.8075V56.0877H410.283C410.512 56.0947 410.729 56.1882 410.891 56.3494C411.052 56.5106 411.146 56.7272 411.153 56.9551V60.3418C411.15 60.5744 411.056 60.7966 410.891 60.9613C410.812 61.0417 410.717 61.1051 410.613 61.1477C410.508 61.1904 410.396 61.2112 410.283 61.2091H407.521V64.4719C407.514 64.6997 407.421 64.9163 407.259 65.0775C407.097 65.2387 406.88 65.3323 406.651 65.3392H402.454ZM401.749 56.0877V50.2092L397.068 56.0877H401.749Z" fill="#756FB3"/>
</svg>
